<?xml version="1.0" encoding="UTF-8" standalone="no"?>
<!-- Created with Inkscape (http://www.inkscape.org/) -->

<svg
   xmlns:dc="http://purl.org/dc/elements/1.1/"
   xmlns:cc="http://creativecommons.org/ns#"
   xmlns:rdf="http://www.w3.org/1999/02/22-rdf-syntax-ns#"
   xmlns:svg="http://www.w3.org/2000/svg"
   xmlns="http://www.w3.org/2000/svg"
   xmlns:sodipodi="http://sodipodi.sourceforge.net/DTD/sodipodi-0.dtd"
   xmlns:inkscape="http://www.inkscape.org/namespaces/inkscape"
   width="210mm"
   height="297mm"
   viewBox="0 0 210 297"
   version="1.1"
   id="svg7967"
   inkscape:version="0.92.3 (5aff6ba, 2018-11-25)"
   sodipodi:docname="cloud-upper-2.svg">
  <defs
     id="defs7961" />
  <sodipodi:namedview
     id="base"
     pagecolor="#ffffff"
     bordercolor="#666666"
     borderopacity="1.0"
     inkscape:pageopacity="0.0"
     inkscape:pageshadow="2"
     inkscape:zoom="0.35"
     inkscape:cx="-74.285714"
     inkscape:cy="560"
     inkscape:document-units="mm"
     inkscape:current-layer="layer1"
     showgrid="false"
     inkscape:window-width="1853"
     inkscape:window-height="1025"
     inkscape:window-x="67"
     inkscape:window-y="27"
     inkscape:window-maximized="1" />
  <metadata
     id="metadata7964">
    <rdf:RDF>
      <cc:Work
         rdf:about="">
        <dc:format>image/svg+xml</dc:format>
        <dc:type
           rdf:resource="http://purl.org/dc/dcmitype/StillImage" />
        <dc:title></dc:title>
      </cc:Work>
    </rdf:RDF>
  </metadata>
  <g
     inkscape:label="Layer 1"
     inkscape:groupmode="layer"
     id="layer1">
    <path
       style="display:inline;opacity:1;fill:#ffffff;stroke-width:0.26458332"
       id="path5395"
       d="m -26.566373,153.43743 c 2.10268,0.0408 4.20603,0.0247 6.30897,0.0178 0.30936,-0.001 0.62257,0.0457 0.92807,-0.003 0.13204,-0.0211 1.49271,-0.5244 1.61642,-0.56311 0.89432,-0.27993 1.81408,-0.45485 2.73384,-0.62387 1.89904,-0.71186 3.71166,-1.5447 5.68696,-2.06307 2.27871,-0.41292 4.59445,-0.48379 6.9034,-0.53186 1.90651995,-0.0277 3.81331,-0.0102 5.71995,-0.008 1.85081,0.0143 3.70168,0.003 5.55251,0.01 1.68743,0.006 3.37482,-0.005 5.06222,-0.0119 1.33674,0.15495 2.56301,-0.15346 3.84835,-0.44112 1.21997,-0.21956 2.46221,-0.28598 3.69955,-0.3131 0.20746,-0.002 0.41492,-0.005 0.62238,-0.006 0.2168,-0.001 0.43966,0.0486 0.6504,-0.002 0.41944,-0.10128 1.94974,-1.2133 1.11301,-0.7462 -6.87145,3.83589 -12.08654,7.11543 -8.4003,4.80467 4.66858,-2.37856 8.96023,-5.56254 13.73188,-7.76265 1.4323,-0.75402 3.14094,-0.43622 4.5679,-1.09211 0.23316,-0.14601 0.93892,-0.57346 0.69948,-0.43802 -2.94822,1.66762 -5.87576,3.37168 -8.82644,5.03493 -0.26118,0.14722 0.49687,-0.33659 0.7567,-0.48616 5.2608,-3.02824 7.53675,-5.29926 12.24723,-6.48386 1.1724,-0.40344 2.45654,-0.14988 3.64595,-0.36331 0.60993,-0.10945 1.1599,-0.43686 1.70167,-0.70952 0.31587,-0.12792 0.63671,-0.24419 0.94761,-0.38377 0.63337,-0.28436 1.26133,-0.58078 1.88719,-0.88131 0.30325,-0.14561 1.18657,-0.63412 0.89473,-0.46681 -9.6013,5.50452 -11.40068,6.70756 -7.7513,4.32334 4.86521,-3.05195 9.77275,-6.14319 15.0463,-8.4361 3.99306,-1.41777 2.12387,-0.81491 -7.75941,4.57655 -0.35588,0.19414 0.67213,-0.45464 0.99117,-0.70474 1.00484,-0.78771 1.93089,-1.68552 2.84121,-2.5776 1.03951,-1.18942 2.21873,-2.24893 3.59113,-3.04144 10.43348,-6.02486 6.70086,-4.6089 11.34471,-6.29911 0.82317,-0.38335 1.76527,-0.2657 2.61965,-0.45914 0.87199,-0.19743 1.75901,-0.63661 2.61779,-0.90401 1.77508,-0.49703 3.63118,-0.59209 5.46403,-0.6633 1.82499,-0.0297 3.65035,-0.0322 5.47552,-0.0216 1.86605,0.003 3.73208,0.0102 5.59813,0.009 1.91969,-0.005 3.83938,10e-4 5.75905,0.01 2.45115,0.16706 4.85382,0.64926 7.273553,1.04102 2.5738,0.17725 4.93399,1.28011 7.32618,2.16554 2.06016,0.76046 4.23627,1.08706 6.31094,1.79989 1.14947,0.55791 2.46572,0.5122 3.66909,0.8297 0.64969,0.17141 1.25866,0.47109 1.89261,0.69375 1.73848,0.87294 3.56572,1.3819 5.48551,1.62397 1.53255,0.15814 2.73307,0.9975 4.04741,1.67462 1.47376,0.31935 2.56091,1.36782 3.86551,2.04886 1.59822,0.60294 3.27695,1.02179 4.95562,1.34381 1.91201,0.16336 3.75177,0.6334 5.58742,1.16527 1.7703,0.50676 3.61561,0.62173 5.44571,0.69595 1.87134,0.54558 3.73986,1.09575 5.61713,1.6189 1.79146,0.53168 3.56335,1.01329 5.42205,1.25018 0.92297,0.15786 1.89328,0.0109 2.79829,0.29736 0.85309,0.27 1.6856,0.8437 2.48613,1.24306 1.3576,1.06925 2.89951,1.93876 4.021,3.26435 1.16814,1.58885 2.19491,3.27327 3.27523,4.92249 1.0192,1.34513 1.84017,2.8083 3.37566,3.60605 1.31543,0.48784 2.73791,0.46864 4.12139,0.48306 1.53635,8e-4 3.07258,-0.0224 4.60896,-0.0213 1.77702,-0.007 3.55399,-0.006 5.33101,-0.005 1.85843,-0.002 3.71681,0.002 5.57522,-0.002 1.80935,0.002 3.61868,0.001 5.42803,-0.002 1.89341,-0.0662 3.74835,0.007 5.6197,0.27933 1.84544,0.33497 3.64582,0.81389 5.51519,1.04199 1.88867,0.25677 3.66982,1.01605 5.55074,1.3916 1.78869,0.27783 3.60175,0.29986 5.40753,0.32341 1.86349,0.006 3.72705,0.003 5.59054,-0.003 2.17241,-0.003 4.34485,0.008 6.5173,0.009 2.32394,-0.001 4.64785,1.2e-4 6.97179,-0.009 2.84531,0.0174 5.69066,0.0223 8.53599,0.0317 3.09422,0.006 6.18845,-0.0156 9.28264,-0.0109 2.71214,-0.01 5.42423,-0.005 8.13636,-0.006 2.77868,-0.1745 5.49434,0.45363 8.17798,1.10699 2.74167,0.69459 5.5603,0.93558 8.37552,1.08143 2.21581,-0.0582 4.38944,0.35016 6.58355,0.58191 1.8316,0.18213 3.67281,0.21354 5.51185,0.23104 1.83568,0.0135 3.67136,0.008 5.50707,0.002 1.8234,0.007 3.6468,-0.006 5.4702,-5.3e-4 1.86571,-0.003 3.73139,0.002 5.5971,2.6e-4 1.87886,-0.002 3.7578,-0.007 5.63663,0.007 2.72323,0.009 5.44645,0.0177 8.16968,0.028 3.34486,0.0153 6.6897,0.001 10.03456,-0.004 2.54987,-0.0148 5.09976,-0.0181 7.64966,-0.017 2.0551,-0.008 4.11017,-0.0114 6.16529,-0.0124 1.86521,-0.004 3.73042,2e-4 5.59565,-0.003 1.80541,0.002 3.61082,0.001 5.41626,-0.002 1.59631,-0.006 3.19365,0.0299 4.78943,-0.0233 0.0486,-0.005 0.18577,-0.0423 0.14587,-0.0141 -10.13569,7.15764 -6.05626,6.63353 -12.31726,6.61619 -1.79086,-0.002 -3.58166,-0.006 -5.37249,-0.003 -1.86182,-0.009 -3.72364,0.004 -5.58546,-0.002 -1.86989,0.003 -3.73978,-0.002 -5.60967,-2.6e-4 -1.82251,0.004 -3.64496,-7.9e-4 -5.46746,0.002 -2.05303,-0.14598 -3.98835,0.59907 -5.98511,0.98972 -2.16623,0.25848 -4.28138,0.77721 -6.40604,1.25663 -2.24351,0.7282 -4.54634,1.14979 -6.88703,1.3897 -2.05443,0.11011 -4.06947,0.093 -6.08644,0.52896 -2.42174,0.35646 -4.72004,1.1106 -7.05986,1.79292 -2.07772,0.53062 -4.20981,0.75238 -6.34735,0.82547 -1.88748,0.0526 -3.77579,0.0328 -5.66367,0.0294 -1.73929,0.001 -3.47853,-0.006 -5.21777,-0.009 -1.83512,-2e-5 -3.67022,-0.004 -5.50534,-0.001 -1.80846,-0.002 -3.61691,-0.001 -5.42539,0.002 -1.85968,-0.004 -3.71938,-0.004 -5.57906,-0.005 -1.83748,0.006 -3.67493,8e-5 -5.51238,0.002 -1.84195,-0.002 -3.68385,-0.001 -5.5258,0.003 -1.79572,-0.007 -3.59148,-0.001 -5.3872,0.002 -1.56009,0.003 -3.12018,0.003 -4.68027,0.004 -1.51053,2.7e-4 -3.02104,2.3e-4 -4.53157,2.1e-4 -1.69151,-0.006 -3.38299,-0.007 -5.07453,-0.005 -1.81543,-0.0103 -3.63087,0.002 -5.44631,-0.004 -1.86746,0.003 -3.73491,-0.003 -5.60237,-5.3e-4 -1.82306,0.004 -3.64609,-7.9e-4 -5.46917,0.002 -1.85235,-0.009 -3.7047,0.004 -5.55702,-0.002 -1.8265,0.002 -3.65297,8e-4 -5.47944,-2.4e-4 -1.96779,0.005 -3.93549,-0.008 -5.90328,-0.005 -2.03346,-0.002 -4.06691,0.001 -6.10034,0.002 -1.85094,0.008 -3.70186,0.002 -5.55281,0.003 -1.79414,0.044 -3.52772,0.0972 -5.25918,-0.41267 -1.62806,-0.55626 -3.31102,-0.85893 -5.0197,-1.00934 -1.71976,-0.10631 -3.44376,-0.099 -5.16601,-0.0966 -1.83158,-0.002 -3.66319,0.002 -5.49479,0.003 -1.83692,0.008 -3.67387,0.002 -5.51082,0.004 -1.84232,-0.002 -3.68467,-0.001 -5.52701,0.003 -1.82378,-0.009 -3.64758,0.004 -5.47138,-0.003 -1.86563,0.003 -3.73126,-0.003 -5.59686,-7.9e-4 -1.82282,0.004 -3.64564,-8e-4 -5.46846,0.002 -1.85235,-0.009 -3.7047,0.004 -5.55704,-0.002 -1.8265,0.002 -3.65297,7.9e-4 -5.47947,-2.4e-4 -1.88463,2.7e-4 -3.76928,0.003 -5.65394,-0.003 -2.05507,-0.0136 -4.11014,0.005 -6.16523,5.3e-4 -1.89999,0.005 -3.79997,-2.1e-4 -5.69996,0.002 -1.82138,0.004 -3.64273,-5.3e-4 -5.46412,0.002 -1.85172,-0.009 -3.70345,0.004 -5.55518,-0.002 -1.82647,0.002 -3.652933,7.9e-4 -5.479403,-2.5e-4 -1.85663,0.002 -3.71324,-0.002 -5.56987,0.002 -2.48521,-0.005 -4.97043,-0.0247 -7.45565,-0.0368 -3.43798,-0.005 -6.87596,-0.0138 -10.31392,5.3e-4 -2.34769,0.02 -4.69543,0.0245 -7.04318,0.0321 -1.91181,-0.002 -3.82371,0.0107 -5.7355,-0.003 -2.50698,-0.0208 -5.01401,-0.0161 -7.52102,-0.005 -2.20453,0.007 -4.409,0.005 -6.61352,-0.003 -2.52314,0.003 -5.04627,-0.008 -7.56941,-0.006 -2.62928,-0.005 -5.25859,0.008 -7.88785,-2.7e-4 -2.76537,0.008 -5.53072,-0.01 -8.29607,-0.007 -3.06443,-0.003 -6.12885,-0.009 -9.19328,-0.001 -2.68195,0.005 -5.36394,0.0107 -8.04591,0.0117 -2.49717,0.003 -4.99421,-0.005 -7.49138,0.005 -2.05092,-0.003 -4.1018,0.0153 -6.15271,0.0106 -1.87202,0.004 -3.74401,-0.001 -5.61602,0.001 -1.81967,0.004 -3.63933,-7.9e-4 -5.459,0.002 -1.82784,-0.004 -3.65571,0.003 -5.48355,-0.003 -1.84913,0.003 -3.69824,0.002 -5.54737,5.3e-4 -1.85851,0.002 -3.71699,-0.002 -5.5755,0.002 -1.6966,0.008 -3.3932,0.003 -5.0898,5.3e-4 -1.68095,2.6e-4 -3.361896,0.004 -5.042856,0.005 -1.59805,0.005 -3.19607,-0.002 -4.79412,-0.005 -1.70439,-0.002 -3.40879,0.007 -5.11318,-6e-5 -1.79369,0.001 -3.58736,-0.001 -5.38105,-0.003 -1.81885,0.006 -3.63769,-0.001 -5.45655,5.3e-4 -1.84179,-0.002 -3.68357,-0.001 -5.52537,0.002 -2.01832,-5.3e-4 -4.03657,-0.0133 -6.05489,-0.011 -2.18341,0.0262 -4.34914,0.39832 -6.52376,0.59438 -1.95333,0.13803 -3.91131,0.15874 -5.86851,0.17046 -1.83824,0.013 -3.67648,0.002 -5.51472,0.002 -2.02273,-0.10532 -4.01185,0.3003 -6.017931,0.49171 -1.95802,0.19082 -3.92426,0.2347 -5.88988,0.25678 -1.86502,0.0169 -3.73012,0.008 -5.59519,0.009 -2.09147,0.27964 -4.18462,0.51168 -6.29081,0.63957 -2.12489,-0.0725 -4.1211,0.67091 -6.17414,1.11806 -2.15647,0.46461 -4.31303,0.85972 -6.50924,1.0764 -2.42124,0.46188 -4.80082,1.09213 -7.24855,1.41223 -1.45902,0.36773 -3.07476,-0.0186 -4.52143,0.36762 9.39845,-7.10225 6.52929,-6.67537 13.31052,-6.65042 1.85668,-0.003 3.71333,-0.003 5.56999,-0.003 1.86574,-0.003 3.73146,0.001 5.5972,-0.002 1.90542,-8e-4 3.81084,2.5e-4 5.71625,0.009 2.05728,-0.003 4.11455,-8e-4 6.17183,-0.005 1.84322,-0.006 3.68643,-10e-4 5.52966,-0.004 1.850651,0.009 3.701311,-0.004 5.551961,0.002 1.82606,-0.002 3.65211,-8e-4 5.47817,2.6e-4 0.91692,-0.0117 1.827,0.0656 2.73179,-0.13199 3.30869,-0.72248 11.29812,-6.01612 -6.88907,4.23177 4.26345,-2.70061 0.84983,-0.55429 11.34284,-6.62885 1.22762,-0.71069 2.41395,-1.24175 3.79118,-1.58169 1.89854,-0.21073 3.7223,-0.72695 5.55872,-1.22671 1.90216,-0.31192 3.59454,-1.19447 5.45257,-1.6996 1.84509,-0.46517 3.68419,-0.89818 5.57618,-1.12514 1.88033,-0.0823 3.73438,-0.15584 5.59522,-0.43605 1.83376,-0.30959 3.69,-0.38902 5.54501,-0.44581 1.81427,-0.0444 3.62931,-0.0334 5.44398,-0.0351 1.85902,0.0845 3.67685,0.001 5.511566,-0.26802 1.94115,-0.36833 3.68839,-1.21098 5.52306,-1.89513 0.80167,-0.51834 1.78459,-0.65716 2.63375,-1.05104 0.27293,-0.12659 1.03144,-0.61962 0.76913,-0.47227 -8.85316,4.97322 -11.414556,7.03609 -7.967,4.34318 1.77159,-1.08163 3.09256,-2.67962 4.63331,-4.03693 0.23797,-0.18976 0.47593,-0.37949 0.7139,-0.56924 0,0 10.39903,-4.11151 10.39903,-4.11151 v 0 c -0.25226,0.16284 -0.50453,0.32571 -0.7568,0.48854 -0.16581,0.13612 -1.3481,1.10254 -1.49695,1.24138 -1.03586,0.96627 -1.76872,2.25536 -3.13108,2.8267 -4.33389,3.58521 -9.36497,6.22124 -14.582656,8.23146 -1.84654,0.73452 -3.70922,1.42256 -5.6917,1.69359 -1.86298,0.22469 -3.73261,0.14274 -5.60605,0.15363 -1.80517,-0.001 -3.61074,0.002 -5.41504,0.0658 -1.83331,0.0818 -3.65937,0.24467 -5.47341,0.52934 -1.86441,0.22906 -3.74308,0.19849 -5.60571,0.44753 -1.84814,0.29426 -3.66083,0.75003 -5.46319,1.2511 -1.81655,0.58903 -3.57675,1.33454 -5.46676,1.67709 -1.83055,0.49729 -3.6927,0.80915 -5.53397,1.25232 -0.94218,0.34875 -1.80852,0.74638 -2.68853,1.23317 -0.3152,0.17435 -1.25061,0.7155 -0.9396,0.53378 9.03645,-5.27995 11.29967,-6.90741 7.73657,-4.40283 -7.45317,4.24976 -8.63489,6.65205 -15.29276,6.48734 -1.826311,0.001 -3.652611,0.003 -5.478921,2.6e-4 -1.85236,0.006 -3.70473,-0.007 -5.5571,0.002 -1.83928,-0.003 -3.67854,0.002 -5.51782,-0.004 -2.05262,-0.004 -4.10524,-0.002 -6.15786,-0.005 -1.91341,0.008 -3.82683,0.009 -5.74025,0.009 -1.86373,-0.003 -3.72743,5.3e-4 -5.59116,-0.002 -1.85769,0.001 -3.71539,0.003 -5.57308,0.007 -6.45771,0.048 -6.29545,1.11497 4.832,-6.64846 1.42771,0.18676 2.91682,-0.25242 4.33568,-0.32043 2.44013,-0.40331 4.83168,-1.04724 7.28169,-1.38676 2.17022,-0.26874 4.30572,-0.71754 6.44204,-1.17997 2.07318,-0.48067 4.12883,-1.02953 6.27802,-0.98275 2.1226,-0.16133 4.22956,-0.47755 6.35524,-0.59105 1.85909,0.005 3.71824,0.005 5.577221,-0.019 1.94086,-0.039 3.88243,-0.11523 5.81355,-0.32385 2.03042,-0.23263 4.05984,-0.51388 6.11001,-0.41311 1.83389,0.003 3.66782,0.002 5.5017,-0.007 1.93791,-0.0232 3.87816,-0.0626 5.80894,-0.2431 2.18626,-0.21062 4.37075,-0.54691 6.57218,-0.50126 2.02846,0.002 4.05684,-0.0106 6.0853,-0.011 1.83952,0.004 3.67904,0.005 5.51856,0.002 1.81827,0.002 3.63653,-0.005 5.4548,5.3e-4 1.79607,-10e-4 3.59212,-0.004 5.3882,-0.003 1.70444,-0.007 3.4089,0.002 5.113346,-7e-5 1.60226,-0.003 3.20449,-0.01 4.80676,-0.005 1.67607,0.002 3.35213,0.005 5.0282,0.005 1.69611,-0.002 3.3922,-0.007 5.08832,5.3e-4 1.8569,0.003 3.71378,-5.3e-4 5.57067,0.002 1.84856,-8e-4 3.69709,-0.002 5.54564,5.3e-4 1.83061,-0.006 3.66126,7.9e-4 5.49187,-0.003 1.8177,0.003 3.63538,-0.002 5.45307,0.002 1.87116,0.002 3.74229995,-0.003 5.61345,0.001 2.04115,-0.005 4.08225,0.0139 6.1234,0.0106 2.49245,0.0105 4.98478,0.002 7.47722,0.005 2.67122,0.001 5.34245,0.007 8.01364,0.0117 3.06538,0.008 6.13075,0.002 9.19613,-0.001 2.77207,0.003 5.54413,-0.0157 8.31621,-0.007 2.62957,-0.008 5.25919,0.005 7.88877,-2.7e-4 2.52891,0.002 5.05781,-0.009 7.58673,-0.006 2.20721,-0.008 4.41435,-0.01 6.62156,-0.003 2.51152,0.0113 5.02304,0.0157 7.53453,-0.005 1.91458,-0.0135 3.82928,-0.002 5.74389,-0.003 2.31832,0.008 4.63662,0.0119 6.95488,0.0321 3.4374,0.0146 6.87482,0.005 10.31224,5.3e-4 2.51897,-0.0121 5.03795,-0.0313 7.556923,-0.0368 1.85523,0.003 3.71043,-7.9e-4 5.56566,0.002 1.82669,-0.001 3.65337,-0.003 5.48008,-2.5e-4 1.85351,-0.006 3.70702,0.007 5.56053,-0.002 1.81919,0.003 3.63835,-0.002 5.45752,0.002 1.89794,0.002 3.79585,-0.002 5.69378,0.002 2.05452,-0.004 4.10904,0.0143 6.16353,5.3e-4 1.88745,-0.006 3.77494,-0.003 5.6624,-0.003 1.82671,-0.001 3.65339,-0.003 5.4801,-2.4e-4 1.85412,-0.006 3.70821,0.007 5.56231,-0.002 1.82076,0.003 3.64149,-0.002 5.46222,0.002 1.86623,0.002 3.73247,-0.003 5.59871,-7.9e-4 1.82629,-0.006 3.65257,0.006 5.47886,-0.003 1.83994,0.004 3.67985,0.005 5.51976,0.002 1.83515,0.002 3.67028,-0.005 5.50543,-0.002 1.83848,-0.004 3.67697,-0.0102 5.51545,-0.0124 1.74805,0.0117 3.49975,0.0221 5.2411,0.19199 1.72675,0.23152 3.4085,0.6456 5.07977,1.13523 1.6887,0.29871 3.4001,0.17411 5.10899,0.19867 1.84772,0.002 3.69544,-0.004 5.54318,0.004 2.03145,0.001 4.06292,0.004 6.09436,0.002 1.97234,0.003 3.94457,-0.0103 5.91688,-0.005 1.82671,-0.001 3.65342,-0.003 5.48013,-2.4e-4 1.85407,-0.006 3.70816,0.007 5.56226,-0.002 1.82096,0.003 3.64193,-0.002 5.46287,0.002 1.86804,0.002 3.73608,-0.003 5.60412,-5.3e-4 1.81906,-0.006 3.63815,0.006 5.45724,-0.004 1.69587,0.002 3.39175,10e-4 5.08762,-0.005 1.51032,-2e-5 3.02064,-7e-5 4.53096,2.1e-4 1.55657,5.3e-4 3.11314,0.001 4.66971,0.004 1.79399,0.003 3.58799,0.009 5.382,0.002 1.83957,0.004 3.67911,0.005 5.51868,0.003 1.83573,0.002 3.67146,-0.004 5.50722,0.002 1.86418,-5.3e-4 3.72835,-0.001 5.59253,-0.005 1.80657,0.003 3.61312,0.004 5.41969,0.002 1.83531,0.003 3.67057,-0.001 5.50588,0.002 1.73807,1.8e-4 3.47612,8e-4 5.21417,0.0133 1.8746,0.005 3.75052,0.0117 5.62361,-0.0746 2.07997,-0.14395 4.15481,-0.40101 6.15712,-1.01024 2.34844,-0.69902 4.70908,-1.30347 7.13023,-1.70177 2.04213,-0.31894 4.09969,-0.26248 6.15307,-0.48477 2.30619,-0.29957 4.55218,-0.84984 6.7923,-1.46931 2.13136,-0.48866 4.27215,-0.90441 6.43179,-1.24686 2.03499,-0.4386 4.04407,-1.01818 6.15185,-0.8317 1.82041,0.003 3.64083,-0.002 5.46121,0.002 1.87013,0.002 3.74026,-0.003 5.61039,-2.5e-4 1.86332,-0.006 3.72668,0.008 5.59001,-0.002 1.794,0.003 3.58796,-0.002 5.38194,-0.003 0.77817,-0.002 1.55612,-0.007 2.33423,-0.0165 0.1728,-0.002 0.65299,-0.11459 0.51843,-0.006 -8.33652,6.7187 -5.12337,7.11755 -8.85518,6.62467 -1.57414,-0.0579 -3.1504,-0.0138 -4.72517,-0.0233 -1.80351,-0.003 -3.60699,-0.004 -5.41049,-0.002 -1.86225,-0.003 -3.72446,8e-4 -5.58671,-0.003 -2.04374,-0.001 -4.08744,-0.004 -6.13116,-0.0124 -2.53426,0.001 -5.06852,-0.002 -7.60275,-0.017 -3.34113,-0.005 -6.68226,-0.0194 -10.02342,-0.004 -2.74891,0.0104 -5.49786,0.0194 -8.2468,0.028 -1.88518,0.0134 -3.7705,0.009 -5.65576,0.007 -1.86624,-0.002 -3.7325,0.003 -5.59874,0.001 -1.82576,0.007 -3.65157,-0.005 -5.47732,0.007 -1.83693,-0.002 -3.67401,0.002 -5.5108,-0.0212 -1.8579,-0.0376 -3.71705,-0.0952 -5.56281,-0.32876 -2.16651,-0.26086 -4.32581,-0.55509 -6.51341,-0.5653 -2.84673,-0.2168 -5.68851,-0.53442 -8.46177,-1.24181 -2.65279,-0.57714 -5.30987,-1.0856 -8.04159,-0.89528 -2.70682,-7.9e-4 -5.41361,0.004 -8.1204,-0.006 -3.0842,0.005 -6.16842,-0.0168 -9.25261,-0.0109 -2.87441,0.009 -5.74879,0.0143 -8.62317,0.0316 -2.31614,-0.009 -4.63225,-0.008 -6.94838,-0.008 -2.18501,0.002 -4.36997,0.0145 -6.55492,0.0211 -1.86836,0.002 -3.73685,0.0173 -5.60507,-0.0131 -1.85579,-0.0395 -3.71975,-0.12578 -5.54252,-0.50423 -1.83086,-0.44819 -3.60389,-1.15814 -5.49375,-1.32176 -1.84865,-0.28925 -3.64903,-0.79551 -5.50424,-1.03725 -1.84456,-0.2109 -3.69585,-0.15854 -5.55008,-0.15121 -1.80729,-0.003 -3.61458,-0.004 -5.42187,-0.002 -1.85706,-0.003 -3.71409,2.6e-4 -5.57114,-5.3e-4 -1.77991,0.003 -3.55987,0.008 -5.33977,0.0185 -1.54805,0.018 -3.09677,0.0367 -4.64468,0.002 -1.53321,-0.0678 -3.08645,-0.1816 -4.45014,-0.96073 -1.54019,-1.04881 -2.53002,-2.54927 -3.58386,-4.0607 -1.0591,-1.60185 -2.08192,-3.22869 -3.23011,-4.76781 -1.07918,-1.16559 -2.50288,-1.99123 -3.79571,-2.89946 -1.80618,-0.91567 -3.0344,-1.14569 -5.07027,-1.25544 -1.87102,-0.31694 -3.67379,-0.85601 -5.49714,-1.37257 -1.80932,-0.52035 -3.61704,-1.11397 -5.47645,-1.41179 -1.8887,-0.11873 -3.77814,-0.33677 -5.5926,-0.90215 -1.82118,-0.51322 -3.67525,-0.80209 -5.54162,-1.0976 -1.75636,-0.39365 -3.5428,-0.79875 -5.15906,-1.61291 -1.27069,-0.74244 -2.47785,-1.55516 -3.88708,-2.02488 -1.19055,-0.68144 -2.4012,-1.22294 -3.7865,-1.38122 -1.94799,-0.34699 -3.77621,-1.00562 -5.58992,-1.79206 -1.82849,-0.60396 -3.74185,-0.84259 -5.55364,-1.50846 -2.09425,-0.6352 -4.25367,-1.04831 -6.292803,-1.86053 -2.36349,-0.84624 -4.67935,-1.84744 -7.22193,-1.9899 -2.37609,-0.41155 -4.76115,-0.83126 -7.17889,-0.88144 -1.92782,0.008 -3.85567,0.0149 -5.78351,0.007 -1.86685,-0.004 -3.7337,-0.002 -5.60055,-0.009 -1.8166,0.004 -3.63469,-0.0177 -5.44964,0.0752 -1.78786,0.11237 -3.58002,0.29468 -5.28366,0.88635 -1.71415,0.5532 -3.4834,0.82748 -5.17452,1.43919 -3.84296,1.82498 -1.11854,0.5595 7.83146,-4.64733 0.31199,-0.1815 -0.62379,0.36335 -0.9348,0.54654 -1.04736,0.61695 -2.05161,1.25251 -2.80545,2.23585 -3.97607,4.58649 -9.52798,7.59013 -15.06254,9.93208 -1.3632,0.66094 -0.48661,0.22843 -1.85175,0.92074 -0.28702,0.14556 -1.13911,0.59853 -0.86196,0.43494 15.62017,-9.21999 10.11456,-5.99011 6.79705,-3.90018 -4.91948,3.01842 -9.75021,6.27051 -15.15274,8.35162 -1.77353,0.5426 -3.63869,0.43981 -5.4132,0.99961 -0.57723,0.20341 -2.22779,1.00171 -1.70239,0.68781 19.12393,-11.42529 2.38819,-0.78456 -3.18654,1.70668 -1.52337,0.27991 -3.07737,0.45195 -4.45447,1.22926 -0.71482,0.37808 -1.42985,0.75323 -2.13658,1.14629 -0.23049,0.12818 -0.91947,0.51716 -0.69152,0.3845 9.44867,-5.49895 11.8101,-7.03119 8.31484,-4.78315 -4.47191,2.41492 -8.28674,6.75751 -13.52058,6.61584 -1.20382,0.0715 -2.40781,0.17948 -3.58314,0.46423 -1.31597,0.26709 -2.63849,0.28006 -3.97834,0.24375 -1.67616,-0.007 -3.35232,-0.0175 -5.02852005,-0.0135 -1.85278995,0.005 -3.70553995,-0.0115 -5.55833995,-0.009 -1.89287,-0.01 -3.78596,-0.0186 -5.67864,0.0162 -2.25891,0.065 -4.53982,0.16437 -6.73233,0.76121 -1.94476,0.61559 -3.75633,1.58935 -5.75956,2.0083 -1.79123,0.40888 -3.53486,1.1363 -5.40442,1.00131 -2.11928,-0.007 -4.23895,-0.0225 -6.35799,0.0178 0,0 9.08494,-6.6006 9.08494,-6.6006 z"
       inkscape:connector-curvature="0" />
    <path
       style="display:inline;opacity:1;fill:#ffffff;stroke-width:1.06907809"
       d="m 192.6324,168.06643 c -1.764,-0.44885 -54.19367,-0.87302 -116.510423,-0.94259 l -113.30319,-0.12648 4.20417,-2.85681 c 8.48807,-5.76779 13.73183,-7.04176 32.10628995,-7.80021 15.56936005,-0.64265 17.58522005,-0.95514 22.45064005,-3.4802 2.93997,-1.52579 7.51028,-3.34908 10.15625,-4.05176 6.09255,-1.61797 18.18445,-7.74006 25.12333,-12.71986 l 5.34539,-3.8362 14.96709,0.0251 c 14.23279,0.0239 15.61803,0.22357 28.234823,4.07027 7.29723,2.22485 14.75405,4.82138 16.57072,5.77009 2.84922,1.48794 18.98308,5.4441 30.42721,7.46101 2.18718,0.38547 4.91961,2.06878 6.94902,4.2809 1.83946,2.00511 4.63045,5.05972 6.2022,6.78803 l 2.85774,3.14239 15.3166,1.8e-4 c 9.07775,1.1e-4 18.68125,0.64402 23.57694,1.58084 5.80483,1.11078 15.81547,1.59094 33.67596,1.61528 13.97859,0.019 27.58051,0.45017 30.22647,0.95805 3.06388,0.58809 -9.74727,0.92607 -35.27957,0.93074 -22.04974,0.004 -41.53368,-0.35992 -43.29766,-0.80878 z"
       id="path5403"
       inkscape:connector-curvature="0" />
  </g>
</svg>
