<?xml version="1.0" encoding="UTF-8" standalone="no"?>
<!-- Created with Inkscape (http://www.inkscape.org/) -->

<svg
   xmlns:dc="http://purl.org/dc/elements/1.1/"
   xmlns:cc="http://creativecommons.org/ns#"
   xmlns:rdf="http://www.w3.org/1999/02/22-rdf-syntax-ns#"
   xmlns:svg="http://www.w3.org/2000/svg"
   xmlns="http://www.w3.org/2000/svg"
   xmlns:sodipodi="http://sodipodi.sourceforge.net/DTD/sodipodi-0.dtd"
   xmlns:inkscape="http://www.inkscape.org/namespaces/inkscape"
   width="210mm"
   height="297mm"
   viewBox="0 0 210 297"
   version="1.1"
   id="svg8565"
   inkscape:version="0.92.3 (5aff6ba, 2018-11-25)"
   sodipodi:docname="cloud-upper-3.svg">
  <defs
     id="defs8559" />
  <metadata
     id="metadata8562">
    <rdf:RDF>
      <cc:Work
         rdf:about="">
        <dc:format>image/svg+xml</dc:format>
        <dc:type
           rdf:resource="http://purl.org/dc/dcmitype/StillImage" />
        <dc:title></dc:title>
      </cc:Work>
    </rdf:RDF>
  </metadata>
  <g
     inkscape:label="Layer 1"
     inkscape:groupmode="layer"
     id="layer1">
    <path
       style="display:inline;opacity:1;fill:#ffffff;stroke-width:0.37797621"
       d="m 200.32704,161.99844 c -2.12571,-0.54693 -3.8183,-1.04105 -3.76131,-1.09805 0.32414,-0.32415 9.08031,-0.14975 9.41763,0.18757 0.27493,0.27492 1.04018,0.0731 2.51471,-0.66306 1.55532,-0.77656 2.92441,-1.12043 5.14331,-1.29187 3.67578,-0.28398 8.58382,-1.4645 16.74572,-4.0278 5.84377,-1.83528 11.19304,-2.84392 12.51312,-2.35945 0.3307,0.12136 1.26373,0.78084 2.07338,1.46551 0.80965,0.68467 2.17035,1.40188 3.02379,1.59379 1.23071,0.27673 1.33792,0.3573 0.51832,0.3894 -2.42125,0.0948 -10.57217,2.1099 -16.14717,3.99189 -3.3074,1.1165 -7.20575,2.21498 -8.66297,2.44108 -1.45719,0.22609 -6.4439,0.4008 -11.08154,0.38824 -7.83299,-0.0212 -8.70664,-0.0935 -12.29699,-1.01725 z"
       id="path5332"
       inkscape:connector-curvature="0" />
    <path
       style="display:inline;opacity:1;fill:#ffffff;stroke-width:0.37797621"
       d="m 257.48662,155.10439 c 8.89413,-1.14213 52.05653,-3.82432 52.61147,-3.26937 0.18291,0.18289 -6.86387,1.62254 -10.46713,2.13842 -2.58974,0.37078 -13.7787,0.76457 -36.2857,1.27706 -5.926,0.13494 -7.70228,0.0906 -5.85864,-0.14611 z"
       id="path5336"
       inkscape:connector-curvature="0" />
    <!-- <path
       style="display:inline;opacity:1;fill:#ffffff;stroke-width:0.26458332"
       id="path5393"
       d="m -247.69147,154.60469 c 1.75614,0.0847 3.47087,0.0462 5.19531,-0.27617 1.40536,-0.39594 2.83395,0.25818 4.23065,7.9e-4 3.37676,-1.72609 7.99082,-4.42873 -7.7493,4.44796 -0.2166,0.12215 0.422,-0.2635 0.62673,-0.40466 0.4212,-0.29042 0.80871,-0.60319 1.21137,-0.91807 4.68529,-2.95585 9.02201,-6.10704 14.4112,-7.1198 4.33492,-0.52533 11.60461,-5.63007 -4.91853,3.76294 4.69733,-3.21498 9.31927,-7.11713 14.9737,-8.28486 1.8308,-0.31523 3.69291,-0.29088 5.54363,-0.29519 1.81207,0.004 3.62404,0.0196 5.43612,0.0229 1.82771,0.009 3.65547,0.003 5.48319,0.009 1.84925,-0.002 3.69847,-0.001 5.54772,-5.3e-4 1.82051,-0.006 3.641,5.3e-4 5.46151,-0.001 1.25113,-0.0238 2.50253,-0.0173 3.7538,-0.0144 1.22552,-0.16918 2.30649,0.16724 3.47276,0.44615 1.29702,0.25356 2.62369,0.27513 3.94044,0.30721 1.80305,0.0255 3.60641,0.0257 5.40962,0.0225 1.85801,-2.6e-4 3.71601,-0.003 5.57401,-0.007 1.82532,0.009 3.65063,-0.004 5.47593,0.002 1.82318,-0.002 3.64633,-5.3e-4 5.4695,5.3e-4 1.81883,-0.006 3.63765,7.9e-4 5.45648,-8e-4 1.84132,0.002 3.68264,0.001 5.52398,-0.002 1.86481,0.004 3.72963,0.004 5.59445,0.004 1.83727,-0.006 3.67453,-1e-4 5.5118,-0.002 1.77255,-0.007 3.54507,2.6e-4 5.31762,-7.9e-4 1.65214,-0.002 3.30429,-0.005 4.95644,-0.006 1.36822,-0.005 2.73636,-0.0116 4.1046,-0.001 1.72926,-0.10293 3.18733,-0.99195 4.77192,-1.5772 1.71114,-1.00072 3.47734,-1.85883 5.31045,-2.60795 1.78665,-1.0796 3.61188,-1.85606 5.65259,-2.29569 1.83007,-0.33343 3.69773,-0.32368 5.55119,-0.33827 1.829967,0.004 3.660007,0.008 5.489947,0.0195 1.8488,0.002 3.69758,0.004 5.54638,0.006 1.80618,-0.004 3.6123,-0.006 5.41848,0.004 2.95085,0.0222 5.90174,0.0297 8.85267,0.0388 2.73674,-0.006 5.47341,-0.0246 8.21015,-0.0339 2.1317,-0.21749 3.96947,0.31579 5.82959,1.31054 1.39108,0.78694 2.84517,1.38767 4.42913,1.60876 1.50593,0.13466 3.02104,0.11445 4.53152,0.11208 1.78583,-0.009 3.57166,-0.01 5.35752,-0.0156 1.85549,0.007 3.71099,-0.007 5.56646,-0.001 0.30274,-0.0443 0.61373,-0.05 0.90824,-0.13296 0.72906,-0.20541 1.40282,-0.57237 2.09637,-0.87689 1.47997,-0.64982 2.93439,-1.31259 4.36846,-2.05898 0.50196,-0.27078 2.75859,-1.48498 3.24979,-1.76253 0.51411,-0.29052 2.04166,-1.18778 1.52829,-0.89595 -14.4063,8.18943 -8.80655,5.27644 -5.60618,2.79188 2.11598,-1.58682 3.9257,-3.5193 5.91717,-5.24748 1.91334,-1.52825 3.66027,-3.24474 5.44759,-4.91471 1.87219,-1.71375 3.6441,-3.53268 5.4992,-5.26395 2.06878,-1.62693 3.89975,-3.43529 5.5381,-5.48878 4.4741298,-4.77141 10.5277198,-8.0556 16.6915298,-10.18232 1.75787,-0.73996 3.78021,-0.34863 5.56789,-0.87953 0.32883,-0.0977 0.62823,-0.27572 0.94237,-0.41357 4.3132402,-2.54398 -3.68522,2.18052 -7.80388,4.40521 -0.30279,0.16355 0.55073,-0.41695 0.79142,-0.66291 0.89664,-0.9163 1.43221,-2.0406 1.99903,-3.17022 1.40655,-2.59234 2.70137,-5.23748 3.49803,-8.083287 0.52451,-2.18708 0.54848,-4.442981 0.59349,-6.678618 0.0378,-3.067497 0.004,-6.134952 -0.0156,-9.202388 -0.0507,-2.275005 -0.0865,-4.535941 0.15285,-6.800147 0.2165,-2.766754 1.5357702,-5.020218 3.1116302,-7.216011 1.50241,-1.99273 3.40151,-3.619262 5.36009,-5.142727 5.32172,-4.486222 11.24288,-7.316163 17.89395,-8.457631 2.97172,-0.404323 5.96736,-0.544928 8.96279,-0.600932 2.00197,-0.02974 4.00415,-0.01633 6.00617,-0.0037 2.26933,0.01363 4.53872,0.01714 6.80808,0.01476 1.63528,0.170357 3.39796,-0.308628 5.00864,0.124775 0.35023,0.09424 0.67249,0.271968 1.00872,0.407953 1.86486,0.960329 2.59345,2.701404 3.20847,4.585801 0.84238,1.934895 2.12913,3.675245 3.5192,5.25241 1.79514,2.025594 3.75512,3.887192 5.63298,5.832978 2.0344,2.060837 4.1081,4.071956 6.08989,6.185951 1.82284,1.665961 3.39563,3.584436 4.85626,5.569727 1.46791,1.855608 2.97278,3.676727 4.54941,5.441175 1.74572,1.686316 3.24374,3.50493 4.35898,5.661184 0.84196,1.901309 1.95371,3.65429 3.03829,5.423807 1.01661,1.76538 1.748953,3.69346 2.271403,5.65972 0.40116,1.87977 0.4472,3.80419 0.47842,5.71794 0.0265,1.83856 0.005,3.67719 0.003,5.51581 -0.004,1.85899 0.0912,3.71338 -0.25416,5.54673 -0.49467,1.83986 -1.704083,3.45205 -3.379183,4.39402 -3.50959,1.97358 -7.05091,3.89019 -10.57638,5.83529 -2.17077,0.3855 -4.31731,0.56443 -6.42281,1.2613 -3.41884,1.84791 -9.53458,5.08702 5.97932,-3.45658 0.37891,-0.20866 -0.71874,0.48253 -1.06217,0.74552 -0.72051,0.55174 -1.33646,1.14058 -2.00652,1.75151 -1.82835,1.67165 -3.67078,3.32354 -5.09199,5.36465 -1.0287,1.56132 -1.25722,3.35811 -1.37406,5.17742 0.022,0.38025 -0.0404,0.81876 0.24752,1.13532 0.61116,0.67206 3.26673,0.6796 4.07159,0.74718 3.47425,0.19124 6.95619,0.16421 10.43417,0.13316 2.36159,-0.0254 4.72323,-0.0472 7.08493,-0.0633 1.562343,-0.0185 3.124623,-0.0157 4.687013,-0.006 1.62264,0.0963 3.26927,-0.10015 4.889,0.0292 1.20182,0.096 2.15916,0.35845 3.33317,0.62418 3.5079,0.92673 7.1124,1.29305 10.7224,1.51237 3.09295,0.0627 6.2085,0.31852 9.29409,0.0207 0.40945,-0.12712 0.82802,-0.22797 1.22839,-0.38136 0.39579,-0.15165 0.77983,-0.33461 1.15501,-0.53183 0.3669,-0.19287 1.42883,-0.84093 1.06807,-0.63681 -14.38582,8.13912 -9.73389,6.03246 -6.55397,3.24594 2.173,-1.94427 4.57496,-3.59754 6.81805,-5.45708 1.84941,-1.67339 4.04574,-2.85837 6.09073,-4.26099 6.32198,-4.1006 12.87077,-7.87783 19.6858,-11.09568 3.0875,-1.38517 6.37098,-2.21888 9.72087,-2.62603 2.14818,-0.26449 4.13456,-0.20551 6.11756,0.69209 1.62457,0.93849 2.26296,2.48993 2.59019,4.24769 0.2154,1.60805 0.16484,3.23459 0.1506,4.85231 -0.0326,2.03852 -0.0395,4.07726 -0.0363,6.116 -0.006,1.88589 0.006,3.77184 -0.003,5.65772 -0.13636,1.683 0.32372,3.17899 1.17533,4.6052 1.07964,1.50489 2.33807,2.89554 3.74084,4.10438 1.73832,1.22289 3.98828,1.29067 6.02954,1.63241 2.20411,0.18037 4.35054,0.7138 6.53894,1.00264 1.87174,0.21914 3.75777,0.24533 5.63988,0.26141 2.26166,0.0301 4.5234,0.0112 6.78511,0.01 2.25819,0.003 4.51636,-0.001 6.77452,-0.01 2.03169,-0.0362 4.06604,0.0885 6.08931,-0.11421 3.06755,-0.41654 5.77093,-1.94149 8.40478,-3.47739 -2.72539,1.53784 -5.41226,3.14604 -8.17618,4.61352 -0.43114,0.22891 0.77494,-0.59377 1.163,-0.8899 0.59267,-0.4523 1.5226,-1.18958 2.18181,-1.57344 3.49864,-2.03724 6.99921,-4.07234 10.54015,-6.03518 0.3075,-0.17046 0.66151,-0.2384 0.9923,-0.3576 2.08359,-0.5934 4.27648,-0.50525 6.42122,-0.50621 3.15974,0.0209 6.31952,0.0403 9.47936,0.0391 2.41604,0.0106 4.83209,-0.0221 7.2481,-0.01 2.29899,0.14896 4.53285,-0.2415 6.75677,-0.76656 1.99015,-0.4313 4.01447,-0.64345 6.04658,-0.71841 1.97424,-0.0647 3.94962,-0.0449 5.92447,-0.0336 2.84374,0.0243 5.68764,0.0283 8.53146,0.0185 2.23438,0.003 4.46871,-0.0207 6.70309,-0.0177 1.88378,-0.006 3.76753,-2.6e-4 5.65131,-0.003 1.81753,-0.004 3.63506,8e-4 5.45262,-0.002 1.82753,0.004 3.65508,-0.003 5.48259,0.003 2.03065,-0.005 4.06122,0.004 6.09187,0.0106 1.68211,-0.122 3.44366,0.25046 5.10826,-0.1231 0.2831,-0.0635 1.94662,-0.69145 2.21863,-0.79242 3.64871,-0.0806 6.43613,2.81898 8.97801,5.09146 2.53997,2.29348 4.76432,4.90661 7.41209,7.08198 1.39025,1.14221 2.52886,1.92194 3.98912,2.96849 3.93874,2.71634 8.37962,4.23229 13.05666,5.0181 4.31681,0.53554 8.6756,0.51835 13.01792,0.51142 3.29957,-0.003 6.59866,-0.0599 9.89801,-0.0841 2.50836,0.0483 4.99488,-0.0409 7.49239,-0.25348 3.45284,-0.35527 6.89279,-0.78246 10.35849,-1.01862 3.04652,-0.16727 6.09674,-0.22821 9.14712,-0.26226 2.01795,-0.0164 4.03617,-0.0185 6.05412,-0.002 2.68544,0.01 5.37083,0.0234 8.05627,0.0266 2.99858,0.0125 5.99707,-0.006 8.99562,-0.007 3.17521,-0.17776 6.28481,0.15925 9.41414,0.64084 3.58119,0.51173 7.19304,0.69762 10.78865,1.07869 3.21046,0.35953 6.43874,0.47211 9.66618,0.53435 3.39879,0.0495 6.798,0.0404 10.19705,0.0344 2.60495,0.002 5.20975,-0.0333 7.81468,-0.0358 1.9527,-0.008 3.90538,-0.009 5.85808,-0.003 2.35813,0.005 4.71628,0.0127 7.07443,0.0122 2.28434,-0.0117 4.56864,-0.003 6.85298,-0.009 2.0548,-5.3e-4 4.10958,-0.004 6.16439,-0.005 1.84735,-0.008 3.69467,-0.002 5.54202,-0.003 1.83948,0.002 3.679,0.001 5.51852,-0.003 1.82345,0.009 3.64691,-0.004 5.47036,0.003 1.75451,0.002 3.50901,-0.003 5.26352,-0.006 1.19785,-0.0108 2.39577,-0.008 3.59367,-0.0175 1.01428,-2.6e-4 2.02851,-0.002 3.04276,0.009 1.54554,-0.066 2.95119,0.49622 3.88673,1.72315 0.28843,0.80393 0.78489,1.16035 1.36912,1.70609 0.53408,0.3339 1.14183,0.32827 1.75003,0.35228 0.90805,-0.002 1.85391,0.31609 2.66573,0.72701 1.20031,0.61186 2.41443,1.18934 3.6948,1.62008 1.67074,0.50918 3.41548,0.60671 5.14869,0.67032 1.81729,0.0404 3.63537,0.0342 5.45301,0.0282 1.81157,-0.009 3.62315,-0.006 5.43472,-0.0104 1.56062,0.13186 2.60604,1.08414 3.60784,2.18304 1.27658,0.97253 2.26832,2.17924 3.27191,3.41114 0.75867,1.10458 1.87484,1.10088 3.09925,1.18751 1.62179,0.0636 3.22331,-0.0512 4.8101,0.33597 0.127,0.064 0.26527,0.10929 0.38097,0.19194 3.22432,2.30304 -7.8214,5.83609 -9.65761,6.80899 -0.18264,0.0968 -0.4147,-0.002 -0.61962,0.025 -0.23728,0.0314 -0.4681,0.10011 -0.70215,0.15016 -1.87863,0.30783 -3.77526,0.47144 -5.6764,0.54037 -1.90537,0.0647 -3.81193,0.0559 -5.71807,0.0585 -1.82438,0.003 -3.64876,-0.005 -5.47314,-0.003 -2.08392,0.28255 -4.17005,0.51339 -6.2691,0.64119 -1.8937,0.11105 -3.79087,0.10968 -5.687,0.11721 -1.84208,-2.3e-4 -3.68419,-0.002 -5.5263,-5.3e-4 -1.65899,0.006 -3.31796,3e-5 -4.97697,-0.003 -1.7889,0.004 -3.5778,-0.003 -5.36673,-0.002 -1.842,-0.002 -3.68398,-0.001 -5.52598,0.002 -1.82452,-0.009 -3.64906,0.004 -5.47357,-0.003 -1.86568,0.003 -3.73137,-0.003 -5.59702,-5.3e-4 -1.82282,0.004 -3.64562,-7.9e-4 -5.46844,0.002 -1.85235,-0.009 -3.70469,0.004 -5.55704,-0.002 -1.8265,0.002 -3.65297,8e-4 -5.47947,-2.4e-4 -1.85661,0.002 -3.71322,-0.002 -5.56982,0.002 -2.53363,-0.0121 -5.06728,-0.0221 -7.60093,-0.0346 -3.48959,-0.005 -6.9792,-0.0125 -10.46882,-0.0121 -3.71731,-0.008 -7.43463,0.002 -11.15192,-7.9e-4 -3.88549,-0.002 -7.77097,-0.002 -11.65643,-0.0129 -4.03887,-2.1e-4 -8.07773,10e-4 -12.11662,0.0109 -3.72534,0.003 -7.4507,-0.001 -11.17605,0.001 -3.69065,10e-4 -7.38132,0.007 -11.07194,-0.006 -3.92687,-0.003 -7.85374,-0.003 -11.7806,0.005 -3.69216,0.005 -7.38437,-0.007 -11.07649,0.005 -2.97384,0.005 -5.94778,0.0249 -8.92165,0.02 -2.65813,0.003 -5.31635,0.003 -7.97454,0.003 -2.16511,0.008 -4.33014,0.0198 -6.49526,0.0122 -2.83284,-0.0215 -5.66578,-0.0268 -8.49868,-0.0189 -2.81813,-0.005 -5.63628,0.004 -8.45441,0.006 -2.64631,0.009 -5.2926,-0.003 -7.93891,-0.004 -3.23731,-0.01 -6.47461,-0.0159 -9.71198,-0.0149 -3.38783,0.009 -6.77568,-0.008 -10.16349,2.6e-4 -3.42574,0.004 -6.85157,-2.6e-4 -10.27734,-0.007 -3.62982,0.004 -7.25967,-0.002 -10.88948,-5.3e-4 -3.72603,0.0287 -7.45435,-0.0836 -11.17675,0.0998 -4.39499,0.3363 -8.80162,0.45926 -13.20704,0.5581 -4.44625,0.074 -8.89302,0.0795 -13.33969,0.088 -4.7894,0.0785 -9.54886,-0.51781 -14.30946,-0.94787 -4.56935,-0.3525 -9.14783,-0.47761 -13.71952,-0.79471 -3.85222,-0.2962 -7.71358,-0.42524 -11.57591,-0.47765 -3.21305,-0.0351 -6.42644,-0.0284 -9.63965,-0.0362 -3.34163,0.005 -6.68329,-0.001 -10.0249,0.009 -2.47089,0.0223 -4.94176,0.0217 -7.4127,0.0255 -2.06311,-7.9e-4 -4.12626,0.0111 -6.18937,0.007 -1.86613,0.004 -3.73224,0.004 -5.59837,0.003 -1.8559,0.002 -3.71176,-0.002 -5.56768,0.002 -1.8078,-0.002 -3.61556,-10e-4 -5.42335,0.002 -1.85934,-0.004 -3.71867,-0.004 -5.578,-0.005 -2.56866,-0.0129 -5.13734,-0.0216 -7.70604,-0.0285 -3.46401,-0.0137 -6.92804,-0.0101 -10.39204,-0.016 -3.44864,-0.0158 -6.89719,0.0152 -10.34574,0.0157 -2.67547,-0.006 -5.35086,0.009 -8.02624,0.0238 -2.03232,0.008 -4.06456,0.002 -6.09685,-0.002 -2.03449,0.003 -4.06897,0.002 -6.10346,0.007 -1.71484,-0.004 -3.42966,0.006 -5.14451,0.0105 -1.45224,0.002 -2.90449,5.3e-4 -4.35673,-1.5e-4 -1.68156,-0.007 -3.36309,-0.008 -5.04468,-0.006 -1.999533,0.001 -3.999073,-0.007 -5.998553,-0.0225 -2.89304,-0.0309 -5.78612,0.001 -8.67918,-0.004 -2.99112,0.003 -5.98221,-0.007 -8.97332,-0.0191 -4.41449,0.25463 -8.73167,-0.73173 -13.07439,-1.35412 -4.61129,-0.78036 -9.25774,-1.27587 -13.92549,-1.53095 -3.72933,-0.15964 -7.463,-0.16053 -11.195,-0.16004 -3.92097,-0.003 -7.84193,-0.002 -11.7629,0.007 -4.68543,-0.29951 -9.37276,-0.52832 -14.06591,-0.65889 -5.5157702,-0.52135 -11.0063802,-1.27682 -16.5015902,-1.97948 -5.49304,-0.68931 -11.0292098,-0.80537 -16.4631398,-1.91026 -4.62367,-1.21323 -9.20911,-2.50506 -13.94703,-3.18138 -4.61322,-0.53388 -9.232,-0.95878 -13.87086,-1.18033 -3.94857,-0.15518 -7.90078,-0.16387 -11.85175,-0.16253 -3.22596,0.007 -6.45197,0.0139 -9.67793,0.0281 -3.22641,-0.005 -6.45284,-0.005 -9.67925,-0.0118 -2.9532,-0.002 -5.90632,0.0117 -8.85947,0.0301 -2.65951,-0.01 -5.31913,-0.004 -7.97861,-0.02 -2.80718,0.002 -5.614327,0.003 -8.421477,0.0176 -2.06912,0.0568 -4.15136,-0.11474 -6.20874,0.13716 -2.30849,0.27161 -4.60086,0.68572 -6.87536,1.16333 -2.91951,0.64079 -5.67682,1.92077 -8.4614,2.99642 -2.39806,1.08581 -4.98772,1.34685 -7.53594,1.82144 -2.77417,1.01342 -5.63465,1.75133 -8.54074,2.26382 -2.87592,0.45522 -5.78481,0.6111 -8.69151,0.69443 -1.96571,0.0337 -3.93213,0.028 -5.89806,0.0166 -1.8602,0.0373 -3.7288,-0.11462 -5.57736,0.11706 -2.04134,0.31422 -4.10055,0.46733 -6.16189,0.56839 -1.46843,0.3062 -2.99015,0.31016 -4.46471,0.54646 -0.96085,0.15398 -1.8988,0.42708 -2.84995,0.63259 -2.94979,0.65915 -5.96025,0.90292 -8.97111,1.06126 -2.29072,0.0921 -4.58324,0.0978 -6.87536,0.098 -2.75014,0.12336 -5.49708,0.39028 -8.25087,0.52957 -3.40113,0.13649 -6.80473,0.17177 -10.2082,0.17839 -3.6416,-0.0209 -7.27316,0.3635 -10.88241,0.81336 -3.73622,0.33193 -7.46855,0.70089 -11.20641,1.01809 -3.84566,0.29581 -7.70213,0.37814 -11.55745,0.41609 -3.5993,-0.21969 -7.08334,0.56028 -10.53863,1.47315 -3.55068,0.79773 -6.69332,2.58791 -9.85759,4.30015 -2.10238,1.20021 -4.43339,1.62897 -6.81113,1.81207 -1.44852,0.10518 -2.90218,0.0912 -4.35338,0.0743 -1.27602,-0.0199 -2.55212,-0.021 -3.82823,-0.0219 -1.8165,0.1469 -3.44516,-0.51445 -5.02679,-1.33352 -1.74149,-1.09831 -3.61312,-1.86921 -5.6298,-2.25956 -1.53693,-0.23549 -3.09601,-0.2228 -4.64652,-0.22185 -1.97713,-0.0839 -3.93822,-0.42747 -5.91619,-0.58181 -0.93758,-0.167 -1.92744,0.0188 -2.86366,-0.12609 -1.07892,-0.16701 -2.17824,-0.57026 -3.23951,-0.83317 -3.00217,-0.70691 -5.97008,-1.5564 -8.9834,-2.21532 -2.68642,-0.37887 -5.30312,-1.0955 -7.89437,-1.88976 -2.38117,-0.87879 -4.76295,-1.71524 -7.24977,-2.2373 -1.96519,-0.43493 -3.98791,-0.28537 -5.96688,-0.56606 -2.07087,-0.31257 -4.1579,-0.47174 -6.24906,-0.55484 -1.86373,-0.0549 -3.72857,-0.0574 -5.59295,-0.0559 -1.8401,-5.3e-4 -3.68022,0.003 -5.52032,0.008 -1.82324,-0.008 -3.64649,0.005 -5.46973,-0.002 -1.86563,0.003 -3.73124,-0.003 -5.59687,-7.9e-4 -1.78483,0.008 -3.56962,2.6e-4 -5.35445,0.002 -1.76363,0.007 -3.52724,-0.001 -5.29087,1.1e-4 -1.76355,0.007 -3.52708,-0.001 -5.29064,-2e-5 -1.80189,0.003 -3.60373,-0.002 -5.40562,8e-4 -1.29413,-0.016 -3.71985,0.41825 -3.65964,-1.62223 0.009,-0.31213 0.20584,-0.58994 0.30875,-0.88505 0.94664,-0.94664 0.76248,-0.87647 2.04199,-1.60872 9.3127,-5.32958 9.96003,-6.41094 18.27032,-8.56989 6.34471,-1.46682 12.87563,-1.75264 19.35893,-2.00312 4.59026,-0.15267 9.18353,-0.17797 13.77596,-0.18009 3.32081,-0.005 6.64167,0.01 9.96248,0.0211 3.5178,0.007 7.03561,0.0104 10.55338,-0.006 2.79151,-0.0959 5.60224,-0.32979 8.3743,-0.69456 3.29402,-1.06931 6.73766,-1.48546 10.0739,-2.37677 2.21737,-0.81101 4.5733,-1.09567 6.80416,-1.85064 1.19911,-0.40581 1.99011,-0.77294 3.14828,-1.27104 2.88801,-1.35556 6.05799,-1.62147 9.15901,-2.12309 2.75063,-0.32938 5.46979,-0.85957 8.21398,-1.23349 0.39095,-0.0375 0.78769,-0.0357 1.17286,-0.11245 0.21147,-0.0421 1.85952,-0.60022 2.08005,-0.6711 0.98651,-0.3171 1.96206,-0.52582 2.98077,-0.70894 1.84454,-0.30803 3.71629,-0.32067 5.58059,-0.3422 1.81501,0.0968 3.59204,-0.29379 5.38582,-0.50824 1.83042,-0.45085 3.6864,-0.75763 5.56623,-0.88695 1.91122,-0.0722 3.69552,-0.82865 5.56289,-1.21262 0,0 -8.89269,6.76383 -8.89269,6.76383 v 0 c -1.87068,0.45042 -3.70401,1.09221 -5.65209,1.10129 -1.8666,0.21601 -3.69983,0.60017 -5.55,0.91945 -1.81197,0.23423 -3.62001,0.49078 -5.45372,0.41013 -1.82446,0.0414 -3.65515,0.1205 -5.44687,0.49775 -2.08525,0.4733 -4.09635,1.2805 -6.24942,1.41758 -2.72317,0.38589 -5.43319,0.85926 -8.16057,1.21667 -3.07221,0.46186 -6.13669,0.9658 -8.97502,2.30997 -3.26742,1.28234 -6.66953,2.0488 -10.04475,2.99125 -3.38735,0.79307 -6.80624,1.44997 -10.18357,2.28502 -2.80331,0.30519 -5.62157,0.62957 -8.44497,0.58225 -3.51004,-0.0165 -7.02014,-0.0129 -10.53021,-0.0129 -3.31822,0.003 -6.63654,0.003 -9.95465,-0.0283 -4.52313,-0.0236 -9.04727,-0.0543 -13.56913,0.0843 -6.45753,0.24633 -12.96078,0.5945 -19.24423,2.22752 -2.11273,0.61067 -3.15849,0.84835 -5.15697,1.66155 -0.68228,0.27762 -2.62938,1.31927 -2.00594,0.92699 13.91312,-8.75437 9.0628,-5.11415 5.74223,-3.46639 -0.18106,0.0932 -0.34857,0.2196 -0.54317,0.27956 -0.0975,0.03 -0.22661,-0.0826 -0.30561,-0.018 -0.0632,0.0517 0.15103,0.0683 0.23207,0.0781 0.90329,0.10941 1.81703,0.0163 2.72288,0.0442 1.80122,0.003 3.60243,-0.002 5.40366,7.9e-4 1.76355,0.001 3.52711,-0.007 5.29068,-2e-5 1.76354,0.001 3.52704,-0.007 5.29057,1.1e-4 1.78342,0.001 3.56682,-0.006 5.35022,0.002 1.86621,0.002 3.73241,-0.003 5.59865,-8e-4 1.82561,-0.006 3.65123,0.006 5.47686,-0.005 1.83814,0.002 3.67628,0 5.51439,-1.8e-4 1.87058,0.007 3.74198,0.008 5.61052,0.10762 2.10502,0.11949 4.19806,0.34495 6.28975,0.60879 2.01433,0.15155 4.04847,0.18375 6.01805,0.68971 2.47505,0.61745 4.86241,1.49115 7.278,2.3036 2.57363,0.74325 5.1597,1.41316 7.80251,1.86496 3.02578,0.7168 6.03234,1.51174 9.06971,2.18129 1.98474,0.49231 3.95986,0.77104 6.00876,0.81132 1.96624,0.18467 3.92545,0.52302 5.90525,0.4813 1.59861,0.0237 3.20797,0.0665 4.77195,0.43486 2.03618,0.54371 3.91143,1.44595 5.74383,2.48098 1.55302,0.68653 3.10204,1.01595 4.80697,0.87942 1.27751,0.007 2.55501,0.0188 3.83252,0.0264 1.40789,0.008 2.81806,0.0141 4.22079,-0.1281 2.2871,-0.28568 4.46681,-0.92179 6.46879,-2.09977 3.18707,-1.70265 6.43565,-3.28397 9.99359,-4.0594 3.51689,-0.83652 7.04615,-1.49159 10.68203,-1.25915 3.83675,-0.057 7.67632,-0.14029 11.50065,-0.47825 3.73534,-0.34529 7.47294,-0.66651 11.20342,-1.05793 3.64158,-0.41751 7.3009,-0.75286 10.97042,-0.72185 3.39585,-0.0272 6.79359,-0.0479 10.18547,-0.23049 2.79332,-0.16747 5.57758,-0.5146 8.37562,-0.54448 2.26402,0.001 4.52953,5.3e-4 6.79125,-0.11413 2.97365,-0.17739 5.93629,-0.50259 8.84296,-1.17956 2.47592,-0.52412 4.97948,-0.86939 7.49989,-1.10018 2.05113,-0.12224 4.09017,-0.34671 6.13001,-0.59059 1.88112,-0.0978 3.76412,-0.0393 5.64722,-0.0434 1.95054,5.3e-4 3.90132,0.0215 5.85155,-0.0268 2.84939,-0.0833 5.70256,-0.2556 8.50951,-0.78326 2.92062,-0.61549 5.75589,-1.50492 8.62754,-2.30359 2.50563,-0.40727 4.97835,-0.92355 7.32457,-1.93647 2.82281,-1.10529 5.63321,-2.35417 8.63375,-2.88881 2.31352,-0.44789 4.63468,-0.88487 6.98479,-1.08917 2.079597,-0.1126 4.162947,-0.0221 6.244897,-0.0437 2.79104,0.0147 5.58205,0.016 8.37311,0.0176 2.67777,-0.0155 5.35567,-0.0104 8.03347,-0.0199 2.9256,0.0186 5.85118,0.0324 8.77686,0.0298 3.23991,-0.007 6.47983,-0.008 9.71974,-0.0189 3.20831,0.008 6.41662,0.002 9.62493,0.0152 3.94547,0.0213 7.89284,0.0396 11.83412,0.24263 4.65135,0.26389 9.2846,0.72571 13.90997,1.28198 4.72739,0.73984 9.29463,2.10449 13.93396,3.25066 5.4188598,1.02333 10.93329979,1.11656 16.3914998,1.86779 5.4872702,0.66455 10.9585102,1.51299 16.4774502,1.86807 4.71451,0.1289 9.42166,0.39409 14.13373,0.57126 3.92763,10e-4 7.85524,-0.0112 11.78287,-0.018 3.73454,0.0102 7.47173,0.0124 11.20108,0.23632 4.66725,0.31271 9.29651,0.93039 13.91823,1.64653 4.3434,0.6279 8.67481,1.43616 13.08732,1.15196 3.00858,-0.0122 6.01718,-0.022 9.02578,-0.019 2.89653,-0.005 5.793113,0.0271 8.689633,-0.004 2.02015,-0.0151 4.04038,-0.0238 6.06058,-0.0225 1.68666,0.002 3.3733,0.001 5.05994,-0.006 1.45238,-5.3e-4 2.90478,-0.002 4.35716,-1.6e-4 1.70521,0.004 3.4104,0.0149 5.11564,0.0105 2.02771,0.005 4.05543,0.004 6.08314,0.007 2.03367,-0.003 4.06728,-0.009 6.10095,-0.002 2.65353,0.0146 5.30706,0.0303 7.96062,0.0238 3.43419,5.3e-4 6.86837,0.0316 10.30261,0.0157 3.47872,-0.006 6.95743,-0.002 10.43612,-0.016 2.59482,-0.007 5.18967,-0.0157 7.78449,-0.0285 1.86381,-5.3e-4 3.72764,-10e-4 5.59147,-0.005 1.80583,0.003 3.61164,0.004 5.41745,0.002 1.8543,0.003 3.70861,-7.9e-4 5.56292,0.002 1.86359,-8e-4 3.72716,-0.002 5.59075,0.003 2.05668,-0.004 4.11342,0.008 6.17011,0.007 2.44829,0.004 4.89659,0.003 7.34483,0.0234 3.33841,0.008 6.67689,-0.003 10.01533,-0.002 3.21609,-0.009 6.43228,-0.009 9.64787,0.058 3.84918,0.10389 7.69808,0.24166 11.53562,0.57481 4.56787,0.32881 9.15003,0.39481 13.71103,0.82987 4.74998,0.44934 9.50574,0.97005 14.28607,0.83918 4.43494,8e-4 8.87047,-0.004 13.30468,-0.0921 4.41393,-0.10179 8.82293,-0.30088 13.22789,-0.60286 3.74285,-0.14915 7.48888,-0.0552 11.23408,-0.0811 3.63035,0.002 7.2607,-0.005 10.89107,-5.3e-4 3.43191,-0.006 6.86387,-0.0109 10.29578,-0.007 3.38757,0.009 6.77516,-0.009 10.16276,2.6e-4 3.25101,0.001 6.50203,-0.005 9.75301,-0.0149 2.65002,-7.9e-4 5.3,-0.0134 7.94999,-0.004 2.81258,0.002 5.62512,0.0116 8.4377,0.006 2.85027,0.008 5.7006,0.002 8.55083,-0.0189 2.15397,-0.007 4.30781,0.004 6.46176,0.0122 2.6552,5.3e-4 5.31042,5.3e-4 7.9656,0.003 2.9555,-0.005 5.91111,0.0152 8.86661,0.02 3.68742,0.0124 7.37486,2.4e-4 11.06228,0.005 3.92226,0.008 7.84455,0.008 11.76681,0.005 3.69578,-0.0127 7.39162,-0.007 11.08742,-0.006 3.72401,0.003 7.44805,-0.002 11.17209,0.001 4.02891,0.009 8.05783,0.0111 12.08674,0.0109 3.89732,-0.0108 7.79471,-0.0109 11.69205,-0.0129 3.71816,-0.003 7.4363,0.007 11.15443,-7.9e-4 3.50073,5.3e-4 7.00146,-0.007 10.50216,-0.0121 2.5654,-0.0125 5.13083,-0.0225 7.69618,-0.0346 1.85523,0.003 3.71043,-8e-4 5.56564,0.002 1.82671,-0.001 3.65339,-0.003 5.48013,-2.4e-4 1.85409,-0.006 3.70819,0.007 5.56231,-0.002 1.82073,0.003 3.64143,-0.002 5.46216,0.002 1.86632,0.002 3.73256,-0.003 5.59885,-7.9e-4 1.827,-0.006 3.654,0.006 5.48095,-0.003 1.83989,0.004 3.6798,0.005 5.51968,0.002 1.79033,0.001 3.58064,-0.006 5.37094,-0.001 1.66,-0.002 3.31997,-0.007 4.97996,0.002 1.83822,0.005 3.67639,0.0103 5.51461,0.001 1.87732,-0.0108 3.75562,-0.0379 5.6294,-0.16304 2.11598,-0.16154 4.21614,-0.47856 6.33511,-0.59366 1.82163,0.005 3.64326,0.003 5.46489,0.006 1.8942,-0.002 3.78944,-0.01 5.68184,-0.1005 1.88683,-0.12306 3.77,-0.30838 5.62825,-0.66967 4.71715,-0.61926 1.95074,-1.60952 -7.79021,5.34585 -0.48829,0.34866 1.02129,0.83067 0.20907,0.63657 -1.56305,-0.25678 -3.15645,-0.0535 -4.72654,-0.26598 -1.46857,-0.21814 -2.72672,-0.62111 -3.58217,-1.92393 -0.96633,-1.23129 -2.01604,-2.32965 -3.23061,-3.3262 -0.87993,-0.89123 -1.75742,-1.4969 -3.07446,-1.44372 -1.81007,-0.001 -3.62006,0.008 -5.43012,0.008 -1.82833,4e-5 -3.65779,0.0154 -5.48455,-0.0754 -1.81525,-0.1113 -3.62969,-0.30964 -5.35231,-0.93295 -1.2818,-0.49015 -2.51891,-1.06674 -3.7673,-1.63276 -0.83124,-0.24802 -1.6397,-0.43675 -2.50994,-0.4446 -0.80076,-0.13498 -1.54228,-0.3958 -2.1508,-0.95721 -0.59944,-0.55613 -1.15374,-1.06531 -1.42597,-1.86368 -0.82238,-0.94228 -2.15622,-0.9215 -3.31615,-0.89453 -1.02286,0.011 -2.04568,0.01 -3.06859,0.009 -1.18184,-0.01 -2.36373,-0.007 -3.54557,-0.0175 -1.74919,-0.003 -3.49838,-0.007 -5.24757,-0.006 -1.82596,0.006 -3.65193,-0.006 -5.4779,0.003 -1.83719,-0.004 -3.67438,-0.005 -5.51156,-0.003 -1.84418,-0.002 -3.68835,0.004 -5.53252,-0.003 -2.05023,-0.001 -4.10046,-0.004 -6.15069,-0.005 -2.27597,-0.006 -4.55197,0.003 -6.82794,-0.009 -2.36935,-5.3e-4 -4.73866,0.007 -7.10801,0.0122 -1.9508,0.006 -3.9016,0.005 -5.85242,-5.3e-4 -2.57779,5.3e-4 -5.15549,-0.0296 -7.73332,-0.0236 -3.40223,-0.004 -6.8048,-5.3e-4 -10.20662,-0.0572 -3.2443,-0.0768 -6.48682,-0.2154 -9.71003,-0.61749 -3.606,-0.38371 -7.23193,-0.56399 -10.81963,-1.11269 -3.1134,-0.44364 -6.22152,-0.59321 -9.36704,-0.47424 -2.99154,-0.002 -5.98305,-0.0198 -8.97459,-0.008 -2.70687,0.002 -5.41369,0.0155 -8.12054,0.0185 -2.01044,0.0104 -4.02093,-0.004 -6.03136,-0.002 -3.00884,0.0114 -6.01956,0.0555 -9.02248,0.25943 -3.47504,0.26414 -6.92348,0.73967 -10.39246,1.06081 -2.52055,0.21188 -5.04235,0.23438 -7.57111,0.20128 -3.26675,0.005 -6.53351,-0.002 -9.80024,0.004 -4.37579,-0.0277 -8.77001,-0.0505 -13.10921,-0.68656 -4.76459,-0.93775 -9.26994,-2.66304 -13.28155,-5.45308 -1.68333,-1.22647 -2.42618,-1.72354 -4.02598,-3.06722 -2.62379,-2.20375 -4.88029,-4.78913 -7.44736,-7.05611 -2.36503,-2.01227 -5.11363,-4.79883 -8.48987,-4.03264 -2.55209,0.76752 -4.90715,0.66118 -7.54682,0.63013 -2.04033,0.006 -4.08059,0.0155 -6.12092,0.0105 -1.83034,0.006 -3.66067,-8e-4 -5.491,0.003 -1.8156,-0.003 -3.63117,0.002 -5.44677,-0.002 -1.88148,-0.002 -3.76293,0.003 -5.64438,-0.003 -2.21708,0.003 -4.43408,-0.0212 -6.65112,-0.0208 -2.85338,-0.0135 -5.70686,-0.0147 -8.5602,0.003 -1.97244,0.009 -3.94634,0.008 -5.91696,0.1031 -1.99027,0.14157 -3.97131,0.38606 -5.916,0.84668 -2.27672,0.46163 -4.57674,0.6717 -6.90192,0.57381 -2.39763,0.01 -4.7951,-0.0291 -7.19273,-0.0343 -3.165,-0.0229 -6.33047,-0.0439 -9.49539,-0.007 -2.09521,0.0475 -4.24,0.0548 -6.2075,0.87333 -3.87506,1.80952 -1.3227,0.65159 7.59545,-4.54307 0.37087,-0.21602 -0.7471,0.42369 -1.10659,0.65811 -0.39394,0.25686 -0.77991,0.52685 -1.15189,0.81457 -5.9604,4.61023 12.8261,-7.36303 -11.87633,7.35736 -2.75243,1.49157 -5.57498,2.90344 -8.75485,3.13445 -2.05396,0.10481 -4.1098,0.0658 -6.16598,0.0675 -2.25264,-0.007 -4.50533,-0.01 -6.75799,-8e-4 -2.27399,0.004 -4.54805,-1e-4 -6.82199,-0.005 -1.91005,-0.0393 -3.82365,-0.096 -5.71561,-0.38621 -2.17477,-0.34671 -4.33033,-0.80572 -6.52171,-1.04956 -2.24113,-0.3961 -4.62193,-0.55717 -6.40914,-2.12631 -1.44605,-1.32887 -2.80929,-2.76915 -3.93882,-4.38018 -0.94893,-1.57534 -1.56718,-3.27669 -1.44278,-5.14777 -0.008,-1.8871 0.003,-3.77431 0.004,-5.66141 0.0127,-2.03775 0.0201,-4.07551 0.0201,-6.1133 0.007,-1.55743 0.0401,-3.11948 -0.0853,-4.67315 -0.19426,-1.4126 -0.56883,-2.64005 -1.97043,-3.2766 -1.87508,-0.6338 -3.81056,-0.49447 -5.75379,-0.24837 -3.24265,0.47892 -6.40546,1.36502 -9.36773,2.79233 -0.65794,0.3218 -1.3198,0.63567 -1.97379,0.9654 -0.64638,0.32588 -1.28789,0.66145 -1.92704,1.00129 -7.94372,4.22376 10.90774,-6.6812 4.30099,-2.4741 -0.38368,0.24431 -0.77481,0.47673 -1.16221,0.71509 -0.34542,0.22726 -0.69083,0.45452 -1.03622,0.68178 -0.29628,0.2307 -0.57695,0.48297 -0.88884,0.6921 -1.40311,0.94087 -3.03413,1.55092 -4.24008,2.78791 -2.21287,1.88898 -4.57306,3.55958 -6.80828,5.41646 -4.38743,4.01033 -3.30904,2.69521 -12.40653,7.9181 -1.14247,0.6559 -2.42779,1.00929 -3.72602,1.17121 -3.10052,0.11409 -6.20607,-0.0267 -9.30241,-0.19557 -3.64976,-0.26091 -7.2759,-0.72494 -10.83185,-1.61598 -2.72476,-0.48665 -5.449283,-0.46048 -8.210313,-0.38878 -1.5593,0.01 -3.11852,0.0136 -4.67784,0.003 -2.33042,-0.003 -4.66087,-7.9e-4 -6.99129,-0.005 -3.50176,-0.0122 -7.00961,0.0315 -10.50468,-0.21819 -2.24401,-0.24625 -5.16855,-0.42509 -5.29412,-3.27829 0.0879,-1.96056 0.2128,-3.94818 1.1612,-5.71423 1.30783,-2.20574 3.11105,-3.95216 5.02166,-5.64538 0.65929,-0.61107 1.2754,-1.26899 1.95321,-1.85944 4.11924,-3.58824 9.19104,-6.08624 14.21839,-8.17807 2.11899,-0.54839 4.31397,-0.66205 6.39066,-1.36058 -2.87051,1.68807 -5.75513,3.35243 -8.6116,5.06419 -0.29692,0.17794 0.63182,-0.28611 0.93043,-0.46117 1.22751,-0.71959 2.33707,-1.72432 2.78331,-3.10376 0.52761,-1.73591 0.34798,-3.51632 0.37095,-5.31228 0.008,-1.8342 0.009,-3.66841 0.0114,-5.50261 -0.019,-1.83147 -0.0364,-3.67554 -0.36671,-5.48298 -0.44156,-1.87626 -1.12895,-3.70035 -2.07878,-5.37974 -1.09669,-1.79647 -2.25202,-3.55752 -3.08459,-5.4963 -1.04579,-2.079019 -2.51698,-3.804568 -4.17692,-5.429146 -1.62134,-1.77755 -3.1315,-3.647512 -4.63516,-5.524971 -1.41795,-1.961243 -2.98527,-3.819978 -4.75358,-5.476328 -1.95932,-2.119017 -4.03291,-4.115254 -6.04809,-6.179133 -1.9219,-1.936242 -3.89612,-3.814805 -5.70767,-5.858888 -1.48428,-1.702134 -2.867,-3.551256 -3.79275,-5.62174 -0.49059,-1.560841 -0.99933,-3.046442 -2.64789,-3.690258 -1.89765,-0.443835 -3.8599,-0.186496 -5.79477,-0.260847 -2.27558,-0.0048 -4.55118,-0.0046 -6.82676,-0.0051 -1.98802,-7.94e-4 -3.97616,-0.01741 -5.9641,0.0047 -2.93865,0.06055 -5.88566,0.194048 -8.78631,0.701979 -1.5834,0.330245 -3.131,0.690166 -4.64754,1.26519 -0.44958,0.170463 -1.73773,0.813406 -1.32959,0.559252 15.10139,-9.403781 10.085,-6.090039 7.22265,-4.183613 -1.8556,1.594364 -3.93398,2.950504 -5.48571,4.885701 -1.51447,2.056463 -3.1111,4.021397 -3.3224,6.68047 -0.26818,2.231779 -0.28823,4.462102 -0.25868,6.709923 0,3.069897 -0.003,6.139634 0.0268,9.209449 0.0124,2.311106 0.0476,4.637484 -0.44802,6.909911 -0.69363,2.93311 -2.0129,5.634889 -3.42712,8.285189 -2.89452,6.43943 -5.4385902,7.55258 -13.9062602,10.87079 -2.13649001,0.5133 -4.38317,0.48074 -6.45309,1.29941 -3.65474,1.47807 -8.9406898,4.8913 5.71550999,-3.6779 0.42068,-0.24597 -0.85958,0.46325 -1.26177,0.73843 -0.91995999,0.62941 -1.40234999,1.15172 -2.20244999,1.91585 -0.60145,0.7542 -1.13437,1.56195 -1.74596,2.30798 -1.05143,1.28259 -2.45697,2.22014 -3.66704,3.33672 -1.9454298,1.6329 -3.6413098,3.53888 -5.5250298,5.24211 -1.79221,1.67503 -3.5183,3.42015 -5.42364,4.96534 -2.05849,1.69116 -3.85366,3.64668 -5.94974,5.30056 -0.0469,0.0376 -2.39184,1.91803 -2.4221,1.93639 -5.12972,3.11055 -10.31709,6.16609 -15.64286,8.93902 -2.46107,1.19215 -5.01862,2.63794 -7.80399,2.74793 -1.85685,0.006 -3.71374,-0.007 -5.57062,0.007 -1.78779,0.002 -3.57552,0.0153 -5.36331,0.0153 -1.56218,-0.006 -3.13886,0.0273 -4.68075,-0.26446 -1.61395,-0.38634 -3.09202,-1.11002 -4.54964,-1.89423 -1.78173,-0.81041 -3.57248,-1.0231 -5.52548,-0.89619 -2.70565,-0.009 -5.41123,-0.0281 -8.11689,-0.0339 -2.98661,0.009 -5.97326,0.0168 -8.95982,0.039 -1.80943,0.01 -3.61881,0.008 -5.42827,0.003 -1.848827,-7e-5 -3.697607,-5.3e-4 -5.546407,-0.009 -1.82917,-2.7e-4 -3.65834,-0.0214 -5.48746,0.001 -1.80554,0.0334 -3.6259,0.082 -5.38403,0.54052 -1.9608,0.57333 -3.70176,1.56481 -5.54397,2.42683 -1.81989,0.79526 -3.52785,1.80718 -5.34945,2.59814 -1.6238,0.66661 -3.24373,1.30389 -5.03713,1.25608 -1.36702,0.0101 -2.73396,0.004 -4.10098,-0.001 -1.64619,-0.001 -3.29238,-0.004 -4.93857,-0.006 -1.77179,-0.001 -3.54356,0.006 -5.31535,-8e-4 -1.83554,-0.002 -3.67107,0.004 -5.50661,-0.002 -1.86891,5.3e-4 -3.73782,8e-4 -5.60673,0.004 -1.83908,-0.004 -3.67815,-0.005 -5.51723,-0.002 -1.81809,-0.002 -3.63617,0.005 -5.45426,-7.9e-4 -1.82367,0.001 -3.64732,0.003 -5.471,5.3e-4 -1.82755,0.006 -3.65512,-0.006 -5.48267,0.003 -1.85512,-0.003 -3.71022,-0.002 -5.56533,0.001 -1.81545,-0.001 -3.63119,0.01 -5.44623,-0.0372 -1.38098,-0.0472 -2.76867,-0.12714 -4.1136,-0.47008 -1.0931,-0.26643 -2.18071,-0.28001 -3.30531,-0.23851 -1.23805,0.003 -2.47625,0.01 -3.71415,-0.0144 -1.81956,-0.002 -3.6391,0.005 -5.45865,-7.9e-4 -1.84874,0.001 -3.69746,0.002 -5.5462,-0.001 -1.83128,0.005 -3.6626,-0.003 -5.49387,-0.006 -1.80823,-0.0103 -3.61649,-0.0205 -5.42475,-0.0157 -1.80063,0.0229 -3.61915,0.055 -5.37314,0.51131 -3.73916,1.18193 -8.51204,4.59322 6.93804,-4.39837 0.29652,-0.17257 -0.5987,0.3362 -0.88633,0.52321 -0.73108,0.47536 -1.06957,0.77669 -1.74885,1.32384 -5.63711,3.26208 -8.7284,6.1466 -14.40032,7.05761 -4.37827,1.14059 -11.74888,5.48622 4.92054,-3.78788 -0.62648,0.42701 -1.16601,1.02339 -1.81636,1.40541 -2.25578,1.32513 -7.46682,5.77151 -11.74307,6.25047 -1.38487,-0.0747 -2.76519,-0.27488 -4.13753,0.0697 -1.76785,0.22411 -3.54506,0.10876 -5.32304,0.15432 0,0 9.08494,-6.6006 9.08494,-6.6006 z"
       inkscape:connector-curvature="0" /> -->
    <path
       style="display:inline;opacity:1;fill:#ffffff;stroke-width:1.06907809"
       d="m -276.54267,192.47153 c -2.39445,-1.17086 -6.53904,-2.10341 -9.41808,-2.11912 -5.5226,-0.0301 -25.93359,-4.32625 -31.20689,-6.56848 -2.10836,-0.89648 -11.63193,-1.58778 -27.79604,-2.01767 l -24.58879,-0.65394 24.58879,-0.22339 c 25.63738,-0.23291 30.6316,-0.84741 48.64306,-5.9852 8.4703,-2.41616 19.30296,-4.36304 38.31649,-6.88637 6.80556,-0.90318 8.50929,-1.59626 12.82894,-5.21883 2.73965,-2.29753 7.80555,-5.46311 11.25756,-7.03461 l 6.2764,-2.85727 h 49.48694 49.48695 l 6.77774,-3.20639 6.77772,-3.20639 20.614087,-8e-4 c 15.90667,-5.3e-4 21.49054,0.36536 24.4521,1.60278 2.27417,0.95021 7.16068,1.60327 11.99277,1.60277 6.79312,-8e-4 9.25798,-0.52273 14.76131,-3.12626 10.55397,-4.99288 17.22255,-9.73445 29.20762,-20.76749 6.1739198,-5.6835 12.4280398,-10.63901 13.89800979,-11.01225 1.46997001,-0.37324 4.95247001,-1.81788 7.73888001,-3.21032 3.9909202,-1.99438 5.6817402,-3.72041 7.9665502,-8.13242 2.57119,-4.965028 2.97267,-7.178127 3.53719,-19.49872 0.68273,-14.900565 2.12875,-19.21996 6.81371,-20.353147 3.10062,-0.749972 23.80032,-1.341009 26.81078,-0.765527 1.33551,0.255302 3.09634,1.815822 3.91292,3.467823 0.81661,1.652003 7.25776,9.333283 14.31367,17.069514 16.24118,17.807137 19.77795,24.050507 19.77795,34.913697 v 7.83032 l -6.1472,2.97292 c -3.38098,1.6351 -8.67291,5.40557 -11.75988,8.37881 -4.74964,4.57469 -5.61266,6.00332 -5.61266,9.29134 0,2.13699 0.59685,4.2543 1.3263,4.70513 0.72946,0.45083 10.23089,1.16793 21.11428,1.59356 10.883403,0.42563 22.737263,1.10893 26.341923,1.51845 5.68293,0.64563 7.31681,0.3907 12.29439,-1.91834 3.15728,-1.46461 9.1081,-5.37391 13.22406,-8.68732 11.10187,-8.93724 21.26605,-12.94161 26.17743,-10.31312 1.92849,1.03211 2.15312,2.22268 2.15312,11.41204 0,8.40884 0.38743,10.88659 2.14763,13.73461 3.48612,5.6407 6.79929,6.40146 27.78657,6.38039 17.6495,-0.0177 19.2234,-0.18988 27.79604,-3.04036 11.76356,-3.9115 22.33866,-4.88568 60.96817,-5.61641 l 31.56852,-0.59717 7.77817,6.97453 c 4.278,3.83599 9.97575,8.03837 12.66169,9.33861 7.65582,3.70612 22.0354,4.74345 43.64339,3.14838 10.58879,-0.78164 24.64435,-1.06991 33.67596,-0.69065 8.5259,0.35802 36.42884,0.92961 62.00653,1.27022 42.27243,0.56291 46.69949,0.78995 48.64306,2.49464 2.94161,2.58009 10.24557,4.59788 19.77792,5.46384 7.24443,0.65813 -236.08416,1.86496 -275.82214,1.368 -9.11389,-0.11399 -57.70348,-0.59272 -107.97688,-1.06388 -50.2734,-0.47115 -92.071833,-1.28558 -92.885393,-1.80984 -0.8136,-0.52426 -13.56236,-1.32677 -28.33058,-1.78335 -27.72561,-0.85721 -50.2858902,-3.03732 -60.52733,-5.84908 -8.34308,-2.29059 -39.961,-3.91236 -66.57274,-3.41471 -19.904227,0.37221 -23.523017,0.71234 -29.426107,2.76575 -12.35505,4.29773 -23.94071,6.5466 -33.76656,6.55435 -5.22177,0.004 -14.12184,0.69553 -19.77794,1.53648 -5.6561,0.84094 -17.98118,1.81579 -27.38906,2.16633 -9.40789,0.35054 -25.13628,1.2986 -34.95197,2.1068 -15.27071,1.25734 -18.74273,1.88606 -24.05426,4.35575 -8.26431,3.84265 -17.45078,4.47746 -23.31279,1.61099 z"
       id="path5405"
       inkscape:connector-curvature="0" />
  </g>
</svg>
