<svg
   width="917"
   height="131"
   viewBox="-259.552490234375 62.601322174072266 900.9620361328125 131.65093994140625"
   >
    <path
       style="fill:#ffffff"
       d="m 200.32704,161.99844 c -2.12571,-0.54693 -3.8183,-1.04105 -3.76131,-1.09805 0.32414,-0.32415 9.08031,-0.14975 9.41763,0.18757 0.27493,0.27492 1.04018,0.0731 2.51471,-0.66306 1.55532,-0.77656 2.92441,-1.12043 5.14331,-1.29187 3.67578,-0.28398 8.58382,-1.4645 16.74572,-4.0278 5.84377,-1.83528 11.19304,-2.84392 12.51312,-2.35945 0.3307,0.12136 1.26373,0.78084 2.07338,1.46551 0.80965,0.68467 2.17035,1.40188 3.02379,1.59379 1.23071,0.27673 1.33792,0.3573 0.51832,0.3894 -2.42125,0.0948 -10.57217,2.1099 -16.14717,3.99189 -3.3074,1.1165 -7.20575,2.21498 -8.66297,2.44108 -1.45719,0.22609 -6.4439,0.4008 -11.08154,0.38824 -7.83299,-0.0212 -8.70664,-0.0935 -12.29699,-1.01725 z"
       id="path5332"
       />
    <path
       style="fill:#ffffff"
       d="m 257.48662,155.10439 c 8.89413,-1.14213 52.05653,-3.82432 52.61147,-3.26937 0.18291,0.18289 -6.86387,1.62254 -10.46713,2.13842 -2.58974,0.37078 -13.7787,0.76457 -36.2857,1.27706 -5.926,0.13494 -7.70228,0.0906 -5.85864,-0.14611 z"
       id="path5336"
       />
    <path
       style="fill:#ffffff"
       d="m -276.54267,192.47153 c -2.39445,-1.17086 -6.53904,-2.10341 -9.41808,-2.11912 -5.5226,-0.0301 -25.93359,-4.32625 -31.20689,-6.56848 -2.10836,-0.89648 -11.63193,-1.58778 -27.79604,-2.01767 l -24.58879,-0.65394 24.58879,-0.22339 c 25.63738,-0.23291 30.6316,-0.84741 48.64306,-5.9852 8.4703,-2.41616 19.30296,-4.36304 38.31649,-6.88637 6.80556,-0.90318 8.50929,-1.59626 12.82894,-5.21883 2.73965,-2.29753 7.80555,-5.46311 11.25756,-7.03461 l 6.2764,-2.85727 h 49.48694 49.48695 l 6.77774,-3.20639 6.77772,-3.20639 20.614087,-8e-4 c 15.90667,-5.3e-4 21.49054,0.36536 24.4521,1.60278 2.27417,0.95021 7.16068,1.60327 11.99277,1.60277 6.79312,-8e-4 9.25798,-0.52273 14.76131,-3.12626 10.55397,-4.99288 17.22255,-9.73445 29.20762,-20.76749 6.1739198,-5.6835 12.4280398,-10.63901 13.89800979,-11.01225 1.46997001,-0.37324 4.95247001,-1.81788 7.73888001,-3.21032 3.9909202,-1.99438 5.6817402,-3.72041 7.9665502,-8.13242 2.57119,-4.965028 2.97267,-7.178127 3.53719,-19.49872 0.68273,-14.900565 2.12875,-19.21996 6.81371,-20.353147 3.10062,-0.749972 23.80032,-1.341009 26.81078,-0.765527 1.33551,0.255302 3.09634,1.815822 3.91292,3.467823 0.81661,1.652003 7.25776,9.333283 14.31367,17.069514 16.24118,17.807137 19.77795,24.050507 19.77795,34.913697 v 7.83032 l -6.1472,2.97292 c -3.38098,1.6351 -8.67291,5.40557 -11.75988,8.37881 -4.74964,4.57469 -5.61266,6.00332 -5.61266,9.29134 0,2.13699 0.59685,4.2543 1.3263,4.70513 0.72946,0.45083 10.23089,1.16793 21.11428,1.59356 10.883403,0.42563 22.737263,1.10893 26.341923,1.51845 5.68293,0.64563 7.31681,0.3907 12.29439,-1.91834 3.15728,-1.46461 9.1081,-5.37391 13.22406,-8.68732 11.10187,-8.93724 21.26605,-12.94161 26.17743,-10.31312 1.92849,1.03211 2.15312,2.22268 2.15312,11.41204 0,8.40884 0.38743,10.88659 2.14763,13.73461 3.48612,5.6407 6.79929,6.40146 27.78657,6.38039 17.6495,-0.0177 19.2234,-0.18988 27.79604,-3.04036 11.76356,-3.9115 22.33866,-4.88568 60.96817,-5.61641 l 31.56852,-0.59717 7.77817,6.97453 c 4.278,3.83599 9.97575,8.03837 12.66169,9.33861 7.65582,3.70612 22.0354,4.74345 43.64339,3.14838 10.58879,-0.78164 24.64435,-1.06991 33.67596,-0.69065 8.5259,0.35802 36.42884,0.92961 62.00653,1.27022 42.27243,0.56291 46.69949,0.78995 48.64306,2.49464 2.94161,2.58009 10.24557,4.59788 19.77792,5.46384 7.24443,0.65813 -236.08416,1.86496 -275.82214,1.368 -9.11389,-0.11399 -57.70348,-0.59272 -107.97688,-1.06388 -50.2734,-0.47115 -92.071833,-1.28558 -92.885393,-1.80984 -0.8136,-0.52426 -13.56236,-1.32677 -28.33058,-1.78335 -27.72561,-0.85721 -50.2858902,-3.03732 -60.52733,-5.84908 -8.34308,-2.29059 -39.961,-3.91236 -66.57274,-3.41471 -19.904227,0.37221 -23.523017,0.71234 -29.426107,2.76575 -12.35505,4.29773 -23.94071,6.5466 -33.76656,6.55435 -5.22177,0.004 -14.12184,0.69553 -19.77794,1.53648 -5.6561,0.84094 -17.98118,1.81579 -27.38906,2.16633 -9.40789,0.35054 -25.13628,1.2986 -34.95197,2.1068 -15.27071,1.25734 -18.74273,1.88606 -24.05426,4.35575 -8.26431,3.84265 -17.45078,4.47746 -23.31279,1.61099 z"
       id="path5405"
       />
</svg>
