<?xml version="1.0" encoding="UTF-8" standalone="no"?>
<!-- Created with Inkscape (http://www.inkscape.org/) -->

<svg
   xmlns:dc="http://purl.org/dc/elements/1.1/"
   xmlns:cc="http://creativecommons.org/ns#"
   xmlns:rdf="http://www.w3.org/1999/02/22-rdf-syntax-ns#"
   xmlns:svg="http://www.w3.org/2000/svg"
   xmlns="http://www.w3.org/2000/svg"
   xmlns:sodipodi="http://sodipodi.sourceforge.net/DTD/sodipodi-0.dtd"
   xmlns:inkscape="http://www.inkscape.org/namespaces/inkscape"
   width="210mm"
   height="297mm"
   viewBox="0 0 210 297"
   version="1.1"
   id="svg7379"
   inkscape:version="0.92.3 (5aff6ba, 2018-11-25)"
   sodipodi:docname="cloud-upper-1.svg">
  <defs
     id="defs7373" />
  <sodipodi:namedview
     id="base"
     pagecolor="#ffffff"
     bordercolor="#666666"
     borderopacity="1.0"
     inkscape:pageopacity="0.0"
     inkscape:pageshadow="2"
     inkscape:zoom="0.35"
     inkscape:cx="-74.285714"
     inkscape:cy="560"
     inkscape:document-units="mm"
     inkscape:current-layer="layer1"
     showgrid="false"
     inkscape:window-width="1853"
     inkscape:window-height="1025"
     inkscape:window-x="67"
     inkscape:window-y="27"
     inkscape:window-maximized="1" />
  <metadata
     id="metadata7376">
    <rdf:RDF>
      <cc:Work
         rdf:about="">
        <dc:format>image/svg+xml</dc:format>
        <dc:type
           rdf:resource="http://purl.org/dc/dcmitype/StillImage" />
        <dc:title></dc:title>
      </cc:Work>
    </rdf:RDF>
  </metadata>
  <g
     inkscape:label="Layer 1"
     inkscape:groupmode="layer"
     id="layer1">
    <path
       style="display:inline;opacity:1;fill:#ffffff;stroke-width:0.26458332"
       id="path5397"
       d="m -157.72282,178.0408 c 1.95355,0.0406 3.90774,0.0176 5.86154,0.0121 1.84616,-0.006 3.69235,-2.6e-4 5.53845,0.0156 2.27275,0.002 4.54554,-2.6e-4 6.81829,-0.007 1.87817,-0.008 3.75633,-0.004 5.63452,-0.007 1.83224,0.0789 3.62275,-0.0107 5.43205,-0.27072 1.80969,-0.58846 3.66043,-0.92734 5.54991,-1.10388 1.23729,-0.16681 2.50471,0.0158 3.72745,-0.2686 0.60888,-0.14161 1.19371,-0.37179 1.79107,-0.55607 3.75427,-2.30894 -0.16141,0.11116 -7.83015,4.44218 -0.32796,0.18522 0.63784,-0.40078 0.95683,-0.60106 0.71873,-0.45125 1.28337,-0.81739 2.02368,-1.23298 3.56887,-2.00349 7.1464,-3.9915 10.7196,-5.98726 2.45603,-0.79954 5.03897,-1.05859 7.60477,-1.20252 1.98458,-0.0652 3.97036,-0.0455 5.95556,-0.0362 1.722819,0.007 3.445658,0.007 5.16849,0.007 1.416188,0.005 2.83232,-0.007 4.248489,-0.007 1.22216,-0.0896 2.551469,-0.30694 3.69861,-0.77028 0.962549,-0.40696 2.0393,-0.31126 3.008101,-0.69727 0.480769,-0.19155 0.920678,-0.47325 1.38779,-0.69603 1.57081,-0.64687 3.186419,-1.1604 4.79825,-1.69161 1.112938,-0.61496 2.824279,-0.18652 3.888388,-0.78894 0.207852,-0.11766 0.362051,-0.3116 0.543071,-0.4674 -14.0872,7.99153 -10.865181,7.21193 -8.23532,4.37878 0.915019,-0.98575 1.75691,-1.99922 2.74081,-2.92169 1.58174,-1.36293 3.037811,-2.86336 4.50782,-4.34391 1.631831,-1.67756 3.364461,-3.24866 5.009571,-4.91306 4.070526,-3.80582 9.013456,-7.62195 14.482586,-8.75461 1.73065,-0.65932 3.5924,-0.686 5.37922,-1.0618 1.76481,-0.4173 3.56511,-0.56499 5.37089,-0.64389 1.86187,0.0749 3.6722,-0.19496 5.50613,-0.46129 1.83821,-0.24398 3.69634,-0.30281 5.54871,-0.32868 0.91886,-0.1285 1.89935,0.12774 2.81375,-0.0204 0.81395,-0.13189 1.83268,-0.57707 2.65166,-0.79843 1.7657,-0.48968 3.58665,-0.61398 5.40749,-0.68127 1.81109,-0.0552 3.62314,-0.0372 5.43475,-0.0352 1.8099,0.001 3.61976,0.008 5.42966,0.007 2.10124,-0.001 4.20236,0.0114 6.30355,0.0222 2.69993005,0.0189 5.39997,0.002 8.09992,-0.007 1.96352,-0.0137 3.92707,-0.01 5.89062,-0.0125 1.83677,0.001 3.67356,5.3e-4 5.51033,-0.003 1.72579,0.0213 3.07722,0.91775 4.57312,1.61827 0.99492,0.51561 2.10687,0.59173 3.20521,0.63774 1.59235,0.032 3.18523,0.0289 4.77782,0.0244 1.82398,-0.009 3.64796,-0.006 5.47194,-0.0102 1.85664,0.008 3.71328,-0.005 5.56993,8e-4 1.82674,-0.002 3.65347,-8e-4 5.4802,2.6e-4 1.21607,-0.0112 2.49922,0.11013 3.64673,-0.40218 0.307,-0.13706 1.1552,-0.68823 0.86226,-0.52326 -2.89187,1.62849 -5.77296,3.27606 -8.65943,4.9141 0.29131,-0.19093 0.5732,-0.39706 0.87393,-0.57277 3.47981,-2.03324 6.97261,-4.04421 10.46638,-6.05336 1.17792,-0.67738 0.6843,-0.3534 1.88438,-0.93744 0.3003,-0.14615 1.1786,-0.62838 0.88941,-0.4613 -2.85991,1.65234 -5.73493,3.27837 -8.6024,4.91755 2.1225,-1.13158 3.83428,-2.81782 5.59357,-4.42304 1.91173,-1.52819 3.47714,-3.41338 5.42331,-4.89656 5.90228,-4.15887 9.07029,-6.46566 15.21215,-6.71392 1.59876,-0.0345 3.19804,-0.006 4.79692,0.007 0.85229,0.11254 1.75559,-0.11251 2.60365,0.0183 0.89938,0.13875 1.83311,0.57265 2.7123,0.81619 1.9047,0.7964 3.87656,1.5337 5.65857,2.58289 1.62281,1.09784 3.45822,1.5459 5.37135,1.78618 1.81895,0.43128 3.66949,0.67133 5.53258,0.78997 1.810444,0.37642 3.635994,0.62026 5.479824,0.74237 1.84681,0.0982 3.69683,0.0995 5.54572,0.0996 2.05718,0.004 4.11443,0.007 6.17161,0.004 1.93398,-0.0108 3.86797,-0.006 5.80195,-0.009 1.81379,-0.004 3.62757,5.3e-4 5.44136,-0.002 1.82267,0.007 3.64541,7.9e-4 5.46809,-0.003 1.67445,-0.007 3.34884,0.003 5.0233,0.002 1.75342,-0.006 3.50677,0.002 5.26019,0.001 1.80265,-0.003 3.60523,0.002 5.40789,-8e-4 1.85098,0.088 3.69486,-0.1809 5.48529,-0.63908 1.94816,-0.31922 3.75791,-0.87212 5.53517,-1.72987 4.13726,-2.45256 -2.6732,1.59073 -7.79878,4.44491 -0.34013,0.1894 0.64272,-0.4396 0.95842,-0.66741 0.38844,-0.28031 1.41523,-1.0828 1.84373,-1.33433 3.46223,-2.0324 6.95383,-4.01433 10.43072,-6.0215 1.77107,-0.76472 3.61968,-1.22702 5.52669,-1.47385 1.41709,-0.16581 2.84269,-0.17074 4.26697,-0.1675 1.26177,0.002 2.52349,0.008 3.78526,0.014 1.51886,-0.0354 2.96158,-0.081 4.4019,0.4433 1.49045,0.93226 3.12256,1.66116 4.543,2.701 1.21361,0.75163 2.05277,1.93476 3.02098,2.96297 0.44106,0.56439 1.13575,0.69125 1.70993,1.0296 0.69246,0.40803 1.26029,0.86052 2.0013,1.20578 1.62738,0.60574 3.22525,1.27617 4.9022,1.73871 1.43055,0.79424 3.05861,0.87804 4.58986,1.32175 1.50022,0.5766 3.14315,0.35613 4.61571,0.94981 1.51347,0.88923 1.98694,2.41934 2.24174,4.05228 0.15367,1.4589 0.14002,2.92943 0.13591,4.39464 -0.0138,1.35352 -0.0257,2.70705 -0.032,4.06062 0.11171,1.1093 -0.39949,2.60956 0.47016,3.48564 1.20457,0.86579 2.34527,1.83264 3.67822,2.4959 1.64711,0.71815 3.43085,0.84243 5.20073,0.91801 0.0684,0.002 1.72627,0.0421 1.80877,0.0276 0.76213,-0.13365 2.66731,-1.06703 3.43966,-1.37595 3.74719,-1.76924 7.68046,-3.07467 11.53782,-4.57328 4.30514,-1.86268 8.87611,-3.0329 13.47462,-3.90134 3.66977,-0.58807 7.39177,-0.67982 11.1003,-0.74002 2.38122,-0.0375 4.76271,-0.0236 7.14409,-0.0209 1.8881,-0.0504 3.29187,-0.14079 5.00724,0.74826 0.94359,0.74593 1.27347,1.83801 1.40933,2.98349 0.0609,0.94225 0.0405,1.88706 0.0209,2.8303 -0.018,1.07198 -0.2208,2.12181 0.45119,3.02053 1.09413,0.93796 2.37432,1.54866 3.73875,1.97716 1.97019,1.24428 3.96457,2.39421 6.19376,3.09744 1.85584,0.37955 3.73832,0.47135 5.60665,0.7736 2.22258,0.70575 4.53941,0.9306 6.85303,1.08902 2.30426,0.12768 4.6128,0.13647 6.91989,0.13411 1.25965,-0.004 2.5628,-0.0558 3.79605,0.26611 0.76346,0.19927 1.48969,0.52158 2.24272,0.75722 2.68623,0.75414 5.39932,1.37439 8.16424,1.75118 2.02883,0.536 4.13547,0.63175 6.18324,1.03819 1.79842,0.41625 3.63241,0.57189 5.47121,0.65775 1.81234,0.61729 3.66011,1.0991 5.49421,1.64395 1.79374,0.72083 3.66601,1.13201 5.58464,1.30785 2.14608,0.45681 4.32204,0.67045 6.5089,0.79368 2.06095,0.0989 4.1247,0.0878 6.18734,0.0942 1.88328,-0.005 3.76655,-0.004 5.64983,-0.008 1.82023,-0.006 3.64046,-0.001 5.46068,-0.004 1.82769,0.004 3.65543,-0.003 5.48312,0.003 1.84912,-0.003 3.69822,-0.002 5.54734,-5.3e-4 1.82991,0.0197 3.55864,-0.33054 5.05745,0.92093 0.25337,0.62752 0.54306,0.98133 0.21662,1.69261 -0.62672,1.36551 -3.0199,2.53777 -4.24469,3.29427 -10.02,6.25442 -9.94589,6.32889 -18.86249,7.47544 -3.03998,0.38452 -6.10015,0.584 -9.16156,0.6858 -2.08418,0.0675 -4.16939,0.0682 -6.25433,0.0671 -1.85536,2.3e-4 -3.71068,-0.006 -5.56604,-0.004 -1.83232,-0.004 -3.66466,0.002 -5.49698,-0.004 -1.84889,0.003 -3.69771,0.002 -5.54657,7.9e-4 -1.82041,0.006 -3.6408,-5.3e-4 -5.46121,0.001 -1.84105,-0.002 -3.68205,-0.001 -5.5231,0.002 -1.86476,-0.004 -3.72954,-0.004 -5.5943,-0.004 -1.83729,0.006 -3.67456,1.1e-4 -5.51182,0.002 -1.81055,0.004 -3.62106,-0.001 -5.43161,0.002 -1.85203,-0.009 -3.70406,0.004 -5.55609,-0.002 -1.86896,0.003 -3.7379,-0.002 -5.60689,-2.6e-4 -1.82258,0.004 -3.64514,-7.9e-4 -5.46775,0.002 -2.74362,-0.0249 -5.48732,-0.0293 -8.23103,-0.0392 -2.95261,-0.0118 -5.90515,0.009 -8.85769,0.0272 -1.96567,-7.9e-4 -3.93131,0.0157 -5.89698,0.0102 -1.85724,0.003 -3.71449,-0.002 -5.57175,-2.4e-4 -1.82007,0.004 -3.64012,-8e-4 -5.46018,0.002 -1.82812,-0.004 -3.65623,0.003 -5.48431,-0.003 -1.84915,0.003 -3.69827,0.002 -5.54742,5.3e-4 -1.85851,0.002 -3.71697,-0.002 -5.57548,0.002 -1.80822,-0.001 -3.61643,-0.001 -5.42465,0.002 -1.76628,-0.002 -3.53253,-0.002 -5.29881,2.6e-4 -1.95297,0.10145 -3.73864,-0.77604 -5.42904,-1.65183 -2.0057,-1.28262 -3.67726,-2.95948 -5.75897,-4.13818 -1.32435,-0.80247 -2.78813,-0.97879 -4.29842,-1.03664 -1.4605,-0.0237 -2.92129,0.001 -4.38182,0.0122 -1.62155,0.0156 -3.24318,0.007 -4.86479,0.009 -1.79369,0.003 -3.58735,-0.002 -5.38104,5.3e-4 -1.8301,-0.004 -3.66025,0.003 -5.49034,-0.003 -1.8497,0.003 -3.69935,0.002 -5.54903,5.3e-4 -1.85851,0.002 -3.717,-0.002 -5.57551,0.002 -1.80819,-0.001 -3.61641,-0.001 -5.42462,0.002 -1.85931,-0.004 -3.71861,-0.004 -5.57792,-0.005 -1.83745,0.006 -3.67488,8e-5 -5.51233,0.002 -1.84195,-0.002 -3.68387,-0.001 -5.52582,0.003 -1.82375,-0.009 -3.64752,0.004 -5.47127,-0.003 -1.86563,0.003 -3.73126,-0.003 -5.59689,-8e-4 -1.82282,0.004 -3.64561,-7.9e-4 -5.46843,0.002 -1.82814,-0.004 -3.65631,0.003 -5.48445,-0.003 -1.84912,0.003 -3.69818,0.002 -5.54728,5.3e-4 -1.85851,0.002 -3.71697,-0.002 -5.57548,0.002 -1.80822,-0.001 -3.61643,-0.001 -5.42465,0.002 -1.8593,-0.004 -3.71861,-0.004 -5.57794,-0.005 -1.83743,0.006 -3.67488,8e-5 -5.51231,0.002 -1.77265,0.007 -3.54525,-2.6e-4 -5.317914,7.9e-4 -1.65213,0.002 -3.30431,0.005 -4.95644,0.006 -1.6318,0.005 -3.2635,-0.005 -4.89526,-0.005 -1.90255,0.005 -3.80501,-0.009 -5.70755,-0.007 -2.24954,-0.007 -4.49908,-0.01 -6.74862,-0.003 -2.29271,0.23667 -4.57263,0.52052 -6.84552,0.89947 -2.28287,0.30279 -4.53675,0.77235 -6.81802,1.08686 -1.95868,0.23812 -3.9358,0.2788 -5.90693,0.29196 -1.92503,-0.0611 -3.81912,0.02 -5.72641,0.26271 -2.05173,0.27291 -4.12044,0.38803 -6.18768,0.46015 -0.94165,0.12033 -1.93145,-0.10138 -2.86958,0.0331 -1.01272,0.14515 -2.0735,0.54625 -3.07344,0.7807 -2.24298,0.3933 -4.45688,0.90065 -6.66739,1.44323 -1.87761,0.51621 -3.61683,1.40931 -5.47461,1.97795 -1.37846,0.341 -2.80659,0.34236 -4.2176,0.35751 -1.5196,0.004 -3.03927,-0.003 -4.55883,-0.0154 -1.70673,-0.009 -3.4135,-0.006 -5.12024,-0.004 -1.54345,0.001 -3.08688,0.002 -4.63034,0.002 -1.36173,-0.001 -2.7234,0.007 -4.08514,0.006 -1.36,0.001 -2.71978,0.002 -4.07973995,-0.0102 -1.78638005,0.0477 -3.49473005,0.0796 -5.21899005,-0.41486 -1.54607,-0.73338 -3.15248,-1.46965 -4.52634,-2.49601 -1.33583,-1.01872 -2.8427,-1.71255 -4.46029,-2.1384 -1.35916,-0.2721 -2.75296,-0.25523 -4.1328,-0.26035 -1.70255,-0.004 -3.40508,0.01 -5.10762,0.007 -1.84692,0.006 -3.69382,0.006 -5.54074,0.005 -1.82231,0.006 -3.64461,-2.7e-4 -5.46692,0.001 -1.80988,0.004 -3.61974,-0.002 -5.42962,0.001 -1.85221,-0.009 -3.70443,0.004 -5.55664,-0.002 -1.86899,0.003 -3.73797,-0.002 -5.60696,-2.6e-4 -1.82259,0.004 -3.64515,-8e-4 -5.46774,0.002 -1.82807,-0.004 -3.65618,0.003 -5.48424,-0.003 -1.84911,0.003 -3.69819,0.002 -5.547288,5.3e-4 -1.8585,0.002 -3.71697,-0.002 -5.57547,0.002 -1.80822,-0.001 -3.616428,-0.001 -5.424648,0.002 -1.859312,-0.004 -3.718632,-0.004 -5.577941,-0.005 -1.837441,0.006 -3.674869,7e-5 -5.512321,0.002 -1.841939,-0.002 -3.683868,-0.001 -5.52581,0.003 -1.82376,-0.009 -3.64753,0.004 -5.471278,-0.003 -1.86564,0.003 -3.73126,-0.003 -5.59689,-8e-4 -1.82282,0.004 -3.64561,-7.9e-4 -5.46844,0.002 -1.85235,-0.009 -3.70471,0.004 -5.55706,-0.002 -1.8265,0.002 -3.65297,8e-4 -5.47945,-2.4e-4 -1.91827,0.0826 -3.80161,-0.0226 -5.70049,-0.27506 -2.25994,-0.29564 -4.53836,-0.39655 -6.81478,-0.45536 -1.96994,-0.0369 -3.94029,-0.0356 -5.91048,-0.0301 -2.0656,-0.0176 -4.13124,0.003 -6.19685,5.3e-4 -1.91532,0.006 -3.83063,0.001 -5.74595,0.004 -1.76081,-0.0398 -3.47832,-0.0507 -5.20568,0.29618 -1.2036,0.34478 -2.4889,0.25237 -3.67935,0.61069 -0.62796,0.15213 -4.09729,-3.27449 -4.73389,-3.1619 l 11.79646,-3.21175 -2.71153,-3.38884 c 0.62831,-0.14107 3.968,3.10599 4.59803,2.97275 1.23355,-0.1585 2.46406,-0.32678 3.6876,-0.55396 1.75511,-0.2204 3.52475,-0.11635 5.28991,-0.13431 1.91246,0.002 3.8249,-0.002 5.73735,0.002 2.06973,-0.005 4.13949,0.0112 6.20918,-0.008 1.96862,0.007 3.93782,0.007 5.90543,0.0784 2.29851,0.0911 4.59461,0.24117 6.87806,0.52825 1.87591,0.19842 3.75494,0.15967 5.63944,0.15543 1.82671,-0.001 3.6534,-0.003 5.48012,-2.4e-4 1.8541,-0.006 3.70821,0.007 5.56231,-0.002 1.82075,0.003 3.64147,-0.002 5.462208,0.002 1.866251,0.002 3.732482,-0.003 5.598731,-8e-4 1.82625,-0.006 3.65251,0.006 5.478759,-0.003 1.839571,0.004 3.679132,0.005 5.5187,0.003 1.83573,0.002 3.671441,-0.004 5.50717,0.002 1.86381,-5.3e-4 3.72763,-0.001 5.591442,-0.005 1.806218,0.003 3.612416,0.004 5.418626,0.002 1.8569,0.003 3.71377,-5.3e-4 5.57066,0.002 1.84852,-7.9e-4 3.69703,-0.002 5.54555,5.3e-4 1.83082,-0.006 3.66167,7.9e-4 5.49249,-0.003 1.82051,0.003 3.64099,-0.002 5.46149,0.002 1.86931,0.002 3.73861,-0.003 5.60792,-2.6e-4 1.85404,-0.006 3.70808,0.007 5.56212,-0.002 1.80859,0.003 3.61714,-0.002 5.42573,0.002 1.82122,0.002 3.64243,-0.005 5.46365,7.9e-4 1.84651,-0.002 3.69303,-0.004 5.53954,-0.008 1.71576,-0.0124 3.43175,-0.0222 5.14751,-0.0142 1.45228,0.0324 2.92058,0.0797 4.31703,0.52478 1.65712,0.58692 3.22322,1.37956 4.63972005,2.42925 1.34552,0.84884 2.74559995,1.6791 4.26881995,2.15887 1.68266,0.28866 3.38578,0.19029 5.08821,0.1965 1.36935,-0.0121 2.73852,-0.0114 4.1079,-0.0102 1.35634,-0.002 2.7126,0.007 4.06893,0.006 1.54121,2.6e-4 3.08242,7.9e-4 4.62362,0.003 1.70558,0.003 3.41114,0.009 5.11672,0.0104 1.51933,-0.004 3.03898,0.0149 4.55802,-0.0232 1.35845,-0.0545 2.72613,-0.14369 4.01325,-0.62387 1.80601,-0.66651 3.58994,-1.40529 5.46848,-1.85265 2.21724,-0.53712 4.45419,-0.97225 6.68561,-1.44413 2.02111,-0.47216 4.01406,-0.74365 6.09776,-0.66321 2.0452,-0.0879 4.08643,-0.24019 6.11615,-0.51367 1.93298,-0.20304 3.86546,-0.17931 5.80738,-0.18297 1.9402,-0.0451 3.88453,-0.10287 5.80664,-0.39607 2.26536,-0.34203 4.51585,-0.77537 6.78596,-1.08776 2.30876,-0.36625 4.6354,-0.65617 6.97116,-0.76893 2.2526,0.007 4.5052,0.004 6.75781,-0.003 1.90894,0.002 3.81782,-0.0118 5.72676,-0.007 1.63661,-1.6e-4 3.273174,-0.01 4.909774,-0.005 1.64619,0.001 3.2924,0.004 4.93858,0.006 1.77189,0.001 3.54375,-0.006 5.31564,7.9e-4 1.83573,0.002 3.67144,-0.004 5.50717,0.002 1.86381,-5.3e-4 3.72764,-0.001 5.59144,-0.005 1.80621,0.003 3.61241,0.004 5.41862,0.002 1.85689,0.003 3.71377,-5.3e-4 5.57067,0.002 1.84851,-7.9e-4 3.69702,-0.002 5.54553,5.3e-4 1.83089,-0.006 3.66181,7.9e-4 5.4927,-0.003 1.82073,0.003 3.64146,-0.002 5.46221,0.002 1.86624,0.002 3.73248,-0.003 5.59872,-7.9e-4 1.82626,-0.006 3.65252,0.006 5.47875,-0.003 1.83957,0.004 3.67914,0.005 5.51871,0.003 1.83573,0.002 3.67144,-0.004 5.50717,0.002 1.8638,-5.3e-4 3.72763,-0.001 5.59144,-0.005 1.8062,0.003 3.61241,0.004 5.41861,0.002 1.8569,0.003 3.71377,-5.3e-4 5.57067,0.002 1.84907,-8e-4 3.69811,-0.002 5.54718,7.9e-4 1.83292,-0.006 3.66588,7.9e-4 5.4988,-0.003 1.79388,0.003 3.58768,-0.002 5.38152,-0.003 1.62648,-0.003 3.25287,-0.0169 4.87929,-0.0282 1.47992,-0.0116 2.96254,-0.0432 4.44021,0.0567 1.62468,0.17124 3.15653,0.58759 4.53253,1.51013 1.98474,1.25654 3.68067,2.90072 5.73468,4.04537 1.64838,0.77338 3.29216,1.38663 5.15107,1.22003 1.76596,0.003 3.53189,0.003 5.29783,2.6e-4 1.8062,0.003 3.61241,0.004 5.41861,0.002 1.8569,0.003 3.71377,-5.3e-4 5.57067,0.002 1.84857,-8e-4 3.69711,-0.002 5.54567,5.3e-4 1.83086,-0.006 3.66175,7.9e-4 5.49259,-0.003 1.81817,0.003 3.6363,-0.002 5.45447,0.002 1.85745,0.002 3.7149,-0.004 5.57239,-2.3e-4 1.95632,-0.005 3.9126,0.011 5.86893,0.0102 2.92761,0.0188 5.85523,0.0391 8.78292,0.0272 2.77966,-0.01 5.55935,-0.0145 8.33893,-0.0392 1.82052,0.003 3.64098,-0.002 5.4615,0.002 1.86928,0.002 3.73856,-0.003 5.60785,-2.7e-4 1.85385,-0.006 3.70771,0.007 5.56156,-0.002 1.80915,0.003 3.61826,-0.002 5.4274,0.002 1.83552,0.002 3.67107,-0.005 5.50659,0.002 1.86888,-5.3e-4 3.73774,-7.9e-4 5.60663,-0.004 1.83877,0.004 3.67755,0.005 5.51632,0.002 1.81949,0.002 3.63892,-0.005 5.45841,0.001 1.84827,-7.9e-4 3.69652,-0.002 5.54479,5.3e-4 1.83491,-0.006 3.66982,0.001 5.50474,-7.9e-4 1.8525,0.005 3.70501,0.004 5.55754,0.01 2.06047,-1.3e-4 4.12142,-0.002 6.18112,-0.0641 3.02752,-0.11967 6.05282,-0.31376 9.05589,-0.73235 1.57853,-0.19952 3.17559,-0.34778 4.72972,-0.70225 3.95809,-0.90279 9.93982,-4.6301 -5.07095,3.82511 1.64208,-0.94597 3.26303,-2.00546 4.88379,-2.95092 -1.3784,-0.74399 -3.11791,-0.22978 -4.61185,-0.37509 -1.84854,7.9e-4 -3.69705,0.002 -5.54559,-7.9e-4 -1.83044,0.006 -3.66093,-8e-4 -5.49137,0.003 -1.81798,-0.003 -3.63593,0.003 -5.45389,5.2e-4 -1.88272,-1.7e-4 -3.76544,0.01 -5.64816,0.001 -2.07,-0.006 -4.14062,-0.0443 -6.20736,-0.16696 -2.19964,-0.16823 -4.37658,-0.46098 -6.55172,-0.82642 -1.9621,-0.2611 -3.84704,-0.80512 -5.71286,-1.46257 -1.76265,-0.53529 -3.54108,-1.07684 -5.34641,-1.4296 -1.86253,-0.13241 -3.70827,-0.37072 -5.53461,-0.76834 -2.05578,-0.30609 -4.10831,-0.61236 -6.14423,-1.03906 -2.78014,-0.47859 -5.51984,-1.15105 -8.24259,-1.88641 -1.93873,-0.56347 -3.85649,-0.87636 -5.88634,-0.73712 -2.30765,-0.0218 -4.61635,-0.0559 -6.91841,-0.23357 -2.35164,-0.19622 -4.6718,-0.53943 -6.96232,-1.1176 -1.9099,-0.2824 -3.86448,-0.33728 -5.71199,-0.94917 -2.17471,-0.83316 -4.12498,-2.06655 -6.20929,-3.086 -1.52548,-0.58228 -3.01678,-1.3196 -4.15171,-2.52515 -0.80222,-1.13935 -0.91154,-2.27041 -0.81045,-3.64095 0.004,-0.90997 0.0382,-1.8197 0.022,-2.72967 -0.0323,-0.74623 -0.0616,-1.56906 -0.78552,-1.97802 -1.49005,-0.59341 -3.107,-0.32744 -4.67622,-0.39186 -2.34796,-0.0186 -4.69609,-0.0389 -7.04413,-0.0227 -3.65329,0.0623 -7.31986,0.17955 -10.92211,0.84997 -4.5466,0.92069 -9.03282,2.15677 -13.29751,4.00773 -3.92861,1.51153 -7.88365,2.95133 -11.70699,4.72117 -1.84195,0.73324 -3.56399,1.30537 -5.57892,0.98357 -1.89286,-0.14509 -3.77066,-0.42525 -5.47632,-1.31854 -1.40055,-0.80887 -2.75421,-1.75247 -3.96513,-2.8244 -0.9535,-1.26617 -0.87646,-2.65441 -0.81994,-4.18315 0,-1.35334 0,-2.70673 0.0161,-4.06001 0.0204,-1.41956 0.0573,-2.84186 -0.0478,-4.25924 -0.13658,-1.21528 -0.30615,-2.46697 -1.58152,-2.97135 -1.52294,-0.31759 -3.1011,-0.37155 -4.58269,-0.89835 -1.56993,-0.34533 -3.11171,-0.71927 -4.58997,-1.37249 -1.70809,-0.54099 -3.38878,-1.17054 -5.02967,-1.89095 -1.37277,-0.73362 -2.77011,-1.51501 -3.93169,-2.55403 -0.92934,-0.96724 -1.72603,-2.07718 -2.88956,-2.78169 -1.36861,-0.91045 -2.84308,-1.73056 -4.34406,-2.38863 -1.39753,-0.28156 -2.82141,-0.1508 -4.24022,-0.17647 -1.2591,-0.002 -2.51814,-0.0112 -3.77724,-0.008 -1.3833,0.0186 -2.77024,0.061 -4.13875,0.2822 -1.8306,0.34092 -3.62275,0.87467 -5.26915,1.76347 2.88116,-1.68017 5.75683,-3.3697 8.64344,-5.04052 0.31842,-0.18433 -0.63381,0.37493 -0.93877,0.58086 -0.64535,0.43581 -1.17898,1.0299 -1.84613,1.43162 -3.44453,2.07422 -6.93439,4.07246 -10.42003,6.07676 -0.29972,0.17234 -0.62246,0.30117 -0.93366,0.45175 -1.84166,0.73066 -3.73634,1.18883 -5.68058,1.56241 -1.8646,0.34143 -3.73766,0.54154 -5.63724,0.45249 -1.80197,-0.003 -3.60394,0.002 -5.40597,-8e-4 -1.75432,-0.001 -3.50861,0.007 -5.26293,0.001 -1.67659,-2e-4 -3.35314,0.009 -5.0297,0.002 -1.82036,-0.003 -3.6407,-0.01 -5.461,-0.003 -1.81171,-0.003 -3.62339,0.002 -5.4351,-0.002 -1.92707,-0.002 -3.85411,0.003 -5.78115,-0.005 -2.06639,2.1e-4 -4.13281,0.0108 -6.19918,0.01 -1.86399,-0.0145 -3.730504,-0.0214 -5.589734,-0.17046 -1.83978,-0.16661 -3.6497,-0.50103 -5.47967,-0.74068 -1.88084,-0.16972 -3.73283,-0.50771 -5.58734,-0.85852 -1.98674,-0.37067 -3.86527,-1.00337 -5.56617,-2.12589 -1.77807,-0.91509 -3.63385,-1.72563 -5.53145,-2.35472 -1.71442,-0.48094 -3.38122,-0.71603 -5.17263,-0.57495 -1.57842,-0.0139 -3.15876,-0.0436 -4.73564,0.0447 -0.89171,0.0736 -1.7771,0.15337 -2.64737,0.37615 -3.63337,0.93011 -9.2831,5.58911 6.82017,-4.36915 -2.18873,1.34937 -3.53916,3.17189 -5.49605,4.77942 -1.81237,1.55172 -3.39494,3.42123 -5.49911,4.59632 -3.50302,2.02706 -6.99597,4.07163 -10.50905,6.08119 -0.58384,0.33397 -1.20769,0.59311 -1.80128,0.90938 -0.31474,0.16769 -1.24504,0.69601 -0.93757,0.51534 9.28306,-5.45463 11.30255,-6.87014 7.73409,-4.42371 -7.79281,4.52071 -8.48762,6.74821 -15.28563,6.62581 -1.82692,0.001 -3.65382,0.003 -5.48075,1.5e-4 -1.85802,0.006 -3.71603,-0.007 -5.57404,0.003 -1.82297,-0.001 -3.64588,0.007 -5.46884,0.01 -1.6283,0.003 -3.25931,0.0383 -4.88544,-0.0619 -1.19519,-0.14124 -2.36204,-0.39416 -3.41845,-1.00098 -1.36313,-0.69474 -2.67872,-1.29244 -4.26011,-1.21501 -1.83396,-0.004 -3.66791,-0.004 -5.50186,-0.003 -1.95208995,-0.003 -3.90415,0.001 -5.85622,-0.0125 -2.69371,-0.009 -5.38751,-0.0257 -8.0812,-0.007 -2.1208,0.0106 -4.24153,0.0233 -6.36238,0.0193 -1.80871,-0.005 -3.6174,-0.003 -5.4261,-0.01 -1.80013,-0.002 -3.60144,-0.002 -5.39997,0.0828 -1.77825,0.11868 -3.54342,0.35786 -5.25772,0.86491 -1.86329,0.50192 -3.69271,0.7048 -5.62838,0.60693 -1.83138,0.0634 -3.66442,0.15014 -5.47717,0.43714 -1.84794,0.25379 -3.6959,0.35019 -5.56049,0.38619 -1.77957,0.12727 -3.5401,0.38521 -5.28745,0.74821 -1.79789,0.26713 -3.58701,0.5664 -5.31185,1.1641 -4.00522,1.56775 -0.78985,0.35737 8.00056,-4.81805 0.26593,-0.15656 -0.55646,0.26917 -0.82,0.42971 -0.93401,0.56896 -1.70506,1.34311 -2.53366,2.04661 -1.63052,1.67211 -3.31741,3.27028 -4.98061,4.90685 -1.47128,1.48681 -2.93247,2.98473 -4.45085,4.42382 -4.924798,3.77648 -4.904216,8.25155 -13.595408,9.77218 -1.483778,0.46747 -3.07856,0.48906 -4.53344,1.08863 -1.59739,0.55577 -3.21582,1.0565 -4.74749,1.78458 -1.455259,0.60642 -3.01,0.79707 -4.50143,1.29647 -1.283798,0.27397 -2.57387,0.57809 -3.897019,0.50648 -1.408819,-5.3e-4 -2.817599,-0.0121 -4.226429,-0.0112 -1.71524,-0.006 -3.43045,-0.0162 -5.14567,-0.0271 -1.9659,-0.007 -3.93413,-0.025 -5.89758,0.0891 -2.49536,0.18479 -5.01221,0.49061 -7.32898,1.49791 2.7927,-1.64156 5.58488,-3.28401 8.37808,-4.92472 0.33987,-0.19963 -0.67619,0.40534 -1.01808,0.60151 -0.33778,0.19378 -0.68051,0.37882 -1.02076,0.56823 -0.30771,0.22076 -0.59637,0.47083 -0.92314,0.66224 -3.48315,2.04029 -6.97642,4.06418 -10.50204,6.03019 -0.29001,0.16172 -0.62255,0.23123 -0.93383,0.34685 -1.85242,0.47986 -3.72754,0.52961 -5.6275,0.67931 -1.87325,0.25364 -3.68254,0.76638 -5.53683,1.11762 -1.83666,0.21882 -3.68028,0.15979 -5.52739,0.15977 -1.87162,-0.004 -3.74323,8e-4 -5.61484,-0.007 -2.26623,-0.007 -4.53249,-0.009 -6.79872,-0.007 -1.86042,0.0156 -3.72092,0.0221 -5.5814,0.0156 -1.96488,-0.008 -3.93009,-0.0301 -5.89471,0.01 l 9.08493,-6.60059 z"
       inkscape:connector-curvature="0"
       sodipodi:nodetypes="cccccccccccccccccccccccsccccccccccccccccccccccccccccccccccccccccccccccccccccscccccccccccccccccccccccccccccccccccccccccccccccccccccccccccccccccccccccccccccccccccccccccccccccccccccccccccccccccccccccccccccccccccccccccccccccccccccccccccccccccccccccccccccccccccccccccccccccccccccccccccccccccccccccccccccccccccccccccccccccccccccccccccccccccccccccccccccccccccccccccccccccccccccccccccccccccccccccccccsccccccccccccccccccccccccccccccccccccccccccccccccccc" />
    <path
       style="display:inline;opacity:1;fill:#ffffff;stroke-width:1.06907809"
       d="M -0.50945395,183.22888 C -4.242744,180.8329 -4.383414,180.82624 -62.515984,180.29291 c -32.045619,-0.294 -56.641096,-0.89535 -54.656626,-1.33635 1.98448,-0.44099 7.8151,-0.80181 12.95694,-0.80181 6.18398,0 11.476938,-0.67746 15.635267,-2.00122 3.457559,-1.10067 7.970269,-2.36641 10.028245,-2.81275 2.637603,-0.57206 6.291864,-3.29864 12.383414,-9.23975 l 8.64165,-8.42821 12.20538,-1.3207 c 12.21073,-1.32128 42.51006,-1.42004 71.39576,-0.23271 l 15.35817,0.63128 9.85385,-5.8803 c 5.41961,-3.23417 10.4742,-6.62779 11.23239,-7.54138 2.17861,-2.62506 9.63745,-2.05578 16.75649,1.2789 l 6.27639,2.93996 h 32.606894 32.60688 l 5.12067,-3.06649 c 3.65014,-2.18586 7.02731,-3.21899 11.75986,-3.59755 6.46289,-0.51697 6.79534,-0.41355 12.51913,3.89461 3.23395,2.43413 8.52588,5.1874 11.75985,6.1184 9.14294,2.63207 9.02991,2.50827 9.62171,10.53815 0.51448,6.98104 0.67426,7.32779 4.25963,9.24465 5.24261,2.80289 7.56274,2.54493 19.73469,-2.19419 13.23692,-5.15375 21.1991,-6.74297 31.59773,-6.3068 l 8.01809,0.33631 0.53454,4.27632 c 0.49303,3.94423 0.99116,4.5024 6.41448,7.18769 4.1402,2.04997 8.88489,3.25339 16.03616,4.06732 13.00101,1.47973 34.87023,5.20336 39.02136,6.64409 1.76397,0.61222 8.98025,1.45291 16.03615,1.86821 7.05594,0.41529 -16.07399,0.70784 -51.39981,0.65012 l -64.22874,-0.10495 -4.19224,-3.20723 -4.19224,-3.20724 h -68.95555 c -73.056404,0 -93.936574,0.93773 -108.790654,4.88577 -5.94294,1.57956 -11.3313,2.0623 -22.98518,2.05925 -13.9517,-0.004 -15.53478,-0.20447 -18.96419995,-2.40543 z"
       id="path5401"
       inkscape:connector-curvature="0" />
  </g>
</svg>
