<svg
   width="210mm"
   height="297mm"
   viewBox="0 0 210 297"
   version="1.1"
   id="svg3403"
  >
  <g id="layer1">
    <path
       style="fill:#ffffff"
       d="m -509.99759,235.60646 c -2.93996,-0.79552 -9.81916,-3.20976 -15.28711,-5.36503 -5.46795,-2.15525 -13.40585,-4.41355 -17.63979,-5.01844 -4.60164,-0.65741 -51.34507,-1.36323 -116.2095,-1.75474 -59.68127,-0.3602 -106.58708,-1.00682 -104.23512,-1.4369 4.1202,-0.75343 27.3657,-3.45739 40.62498,-4.72561 3.52795,-0.33743 9.30097,-1.36232 12.82895,-2.27754 4.6822,-1.21462 12.62171,-1.71931 29.39963,-1.86878 l 22.9852,-0.20476 8.49294,-4.23804 8.49294,-4.23804 33.73564,-0.56298 33.73564,-0.56301 6.41446,-3.11632 c 5.73472,-2.78606 7.88727,-3.18619 20.31249,-3.77579 15.86824,-0.75297 20.62593,-2.37955 32.29796,-11.04228 3.65203,-2.71047 10.44121,-6.83929 15.08703,-9.17516 12.81522,-6.44337 16.45229,-12.20216 16.60228,-26.28743 0.0824,-7.73715 -2.59281,-13.49727 -9.45618,-20.36064 -5.69172,-5.69172 -12.59089,-7.95083 -27.19697,-8.90556 l -10.21943,-0.668 -1.23844,-5.34539 c -1.87107,-8.07597 -1.72861,-24.502179 0.27442,-31.640909 l 1.71811,-6.12332 10.95469,-0.36128 10.95469,-0.3613 9.09164,-6.05325 c 8.35726,-5.5643 9.14659,-6.39687 9.77188,-10.30722 0.75729,-4.7359 5.57104,-12.41494 13.57215,-21.65074 8.43613,-9.73794 8.50156,-10.04809 8.50156,-40.2934426 V -28.63848 l 8.98128,-4.45426 c 11.6368,-5.771261 15.53866,-9.31781 21.74036,-19.760687 5.362,-9.028882 14.40871,-18.380453 24.08558,-24.897249 5.31953,-3.582371 5.98683,-3.749135 15.00206,-3.749135 7.83474,0 10.38934,0.451522 15.06239,2.662219 3.09509,1.46422 6.16127,3.749373 6.8137,5.078121 3.60051,7.332681 5.56245,13.146781 5.01664,14.866454 -0.39833,1.255056 0.37131,2.935491 2.16688,4.731051 1.53154,1.531554 3.06483,4.185534 3.40725,5.897727 0.34245,1.712198 0.97645,3.113085 1.40888,3.113085 1.0322,0 8.92659,-5.341321 9.71431,-6.572647 0.33637,-0.525809 0.68564,-7.279021 0.77618,-15.007133 l 0.16463,-14.051116 4.28987,-8.6598 c 2.35942,-4.762892 6.3399,-10.96747 8.8455,-13.78795 l 4.55565,-5.12815 15.83661,-0.98223 c 8.71011,-0.54023 16.21197,-1.21424 16.67078,-1.49779 0.45879,-0.28355 7.12825,-1.02392 14.82101,-1.64527 21.34595,-1.72412 40.81862,1.18401 46.1863,6.89765 1.27678,1.35904 2.62049,4.75293 3.11142,7.858628 2.04835,12.957657 11.75346,19.791062 32.17082,22.651573 9.39422,1.316143 12.45555,3.626662 16.70402,12.607142 4.55679,9.632304 5.73627,18.026099 5.73831,40.83681 0,15.0700554 -0.58605,24.9860454 -2.1196,35.783308 -2.77405,19.53107 -2.82758,30.59819 -0.15963,33.01264 2.66166,2.40876 25.04052,5.3498 35.17694,4.62295 6.08166,-0.43607 9.82491,-1.51574 17.47816,-5.04116 7.98026,-3.67607 10.51494,-4.38217 14.03544,-3.90997 7.89691,1.0592 17.89805,6.93239 26.600279,15.62107 9.18263,9.16835 11.45082,13.84676 14.39606,29.69353 2.8516,15.342959 3.60748,17.413979 8.15755,22.350219 5.133,5.56866 7.71766,6.40298 24.43774,7.88843 20.83906,1.85139 25.60455,1.50503 44.31718054,-3.22101 C 10.189259,112.585 19.849459,110.79459 24.006909,110.71166 c 6.21689,-0.12399 7.84698,0.33097 15.47209,4.3183 4.6877,2.4513 9.02237,4.45691 9.63263,4.45691 0.61026,0 2.42761,1.22219 4.0386,2.71597 2.17467,2.01647 2.93058,3.73732 2.935,6.68174 0.0156,10.36624 5.25862,17.82221 16.97249,24.136 12.91365,6.9605 24.51309,7.75714 39.764761,2.73103 l 9.98694,-3.29112 36.39227,0.48127 c 55.7829,0.73774 71.90758,3.08177 82.85707,12.04487 7.8536,6.4289 13.2717,8.83933 25.4697,11.33123 12.2717,2.50695 13.8902,3.30282 25.0662,12.32564 9.7776,7.894 18.815,12.57549 27.4301,14.20932 3.1647,0.60018 16.152,1.1217 28.8606,1.15898 14.168,0.0416 22.2175,0.4264 20.8085,0.99486 -1.2639,0.50993 -7.2774,1.02333 -13.3635,1.14091 -6.086,0.11761 -17.5601,0.87172 -25.498,1.67587 -10.5724,1.07101 -32.7503,1.46259 -82.9208,1.46402 l -68.48824,0.003 -19.71072,3.41792 c -18.51033,3.20974 -21.33838,3.42132 -46.43766,3.47451 l -26.726961,0.0566 -9.62171,-4.65952 c -5.29193,-2.56273 -12.26767,-5.68598 -15.50162,-6.94055 l -5.87994,-2.28103 -144.85395,-0.31239 c -126.310939,-0.27239 -146.076349,-0.10242 -154.402889,1.32789 -7.9642,1.368 -22.00384,1.64023 -84.59616,1.64023 -61.3456,0 -75.81635,0.27139 -79.26012,1.4864 -2.31711,0.81754 -11.87902,5.2877 -21.24871,9.93373 -21.27787,10.55082 -25.80256,12.35731 -41.09003,16.40528 -14.69872,3.89207 -31.61866,5.06026 -40.09044,2.76794 z"
       id="path5319"
       inkscape:connector-curvature="0" />
    <path
       style="fill:#ffffff"
       d="m 464.53576,196.0585 c 9.3435,-5.29738 12.4518,-6.04668 25.1775,-6.06949 8.6702,-0.0156 9.5593,-0.16499 16.7167,-2.81037 l 7.5596,-2.79398 48.3809,-0.17901 48.381,-0.17905 -5.2917,1.91204 c -9.7726,3.53113 -14.7294,4.01204 -41.6454,4.0404 -28.0038,0.0295 -30.1805,0.31956 -42.6433,5.68214 -10.8486,4.66802 -12.7715,4.904 -40.0614,4.91641 l -24.5644,0.0111 z"
       id="path5321"
       inkscape:connector-curvature="0" />
  </g>
</svg>
