<?xml version="1.0" encoding="UTF-8" standalone="no"?>
<!-- Created with Inkscape (http://www.inkscape.org/) -->

<svg
   xmlns:dc="http://purl.org/dc/elements/1.1/"
   xmlns:cc="http://creativecommons.org/ns#"
   xmlns:rdf="http://www.w3.org/1999/02/22-rdf-syntax-ns#"
   xmlns:svg="http://www.w3.org/2000/svg"
   xmlns="http://www.w3.org/2000/svg"
   xmlns:sodipodi="http://sodipodi.sourceforge.net/DTD/sodipodi-0.dtd"
   xmlns:inkscape="http://www.inkscape.org/namespaces/inkscape"
   width="461"
   height="46"
   viewBox="-117.28474426269531 138.66831970214844 461.75128173828125 46.96601867675781"
   version="1.1"
   id="svg7379"

   sodipodi:docname="cloud-upper-1.svg">
  <defs
     id="defs7373" />
  <metadata
     id="metadata7376">
    <rdf:RDF>
      <cc:Work
         rdf:about="">
        <dc:format>image/svg+xml</dc:format>
        <dc:type
           rdf:resource="http://purl.org/dc/dcmitype/StillImage" />
        <dc:title></dc:title>
      </cc:Work>
    </rdf:RDF>
  </metadata>
  <g
     id="layer1">
    <path
       style="display:inline;opacity:1;fill:#ffffff;stroke-width:1.06907809"
       d="M -0.50945395,183.22888 C -4.242744,180.8329 -4.383414,180.82624 -62.515984,180.29291 c -32.045619,-0.294 -56.641096,-0.89535 -54.656626,-1.33635 1.98448,-0.44099 7.8151,-0.80181 12.95694,-0.80181 6.18398,0 11.476938,-0.67746 15.635267,-2.00122 3.457559,-1.10067 7.970269,-2.36641 10.028245,-2.81275 2.637603,-0.57206 6.291864,-3.29864 12.383414,-9.23975 l 8.64165,-8.42821 12.20538,-1.3207 c 12.21073,-1.32128 42.51006,-1.42004 71.39576,-0.23271 l 15.35817,0.63128 9.85385,-5.8803 c 5.41961,-3.23417 10.4742,-6.62779 11.23239,-7.54138 2.17861,-2.62506 9.63745,-2.05578 16.75649,1.2789 l 6.27639,2.93996 h 32.606894 32.60688 l 5.12067,-3.06649 c 3.65014,-2.18586 7.02731,-3.21899 11.75986,-3.59755 6.46289,-0.51697 6.79534,-0.41355 12.51913,3.89461 3.23395,2.43413 8.52588,5.1874 11.75985,6.1184 9.14294,2.63207 9.02991,2.50827 9.62171,10.53815 0.51448,6.98104 0.67426,7.32779 4.25963,9.24465 5.24261,2.80289 7.56274,2.54493 19.73469,-2.19419 13.23692,-5.15375 21.1991,-6.74297 31.59773,-6.3068 l 8.01809,0.33631 0.53454,4.27632 c 0.49303,3.94423 0.99116,4.5024 6.41448,7.18769 4.1402,2.04997 8.88489,3.25339 16.03616,4.06732 13.00101,1.47973 34.87023,5.20336 39.02136,6.64409 1.76397,0.61222 8.98025,1.45291 16.03615,1.86821 7.05594,0.41529 -16.07399,0.70784 -51.39981,0.65012 l -64.22874,-0.10495 -4.19224,-3.20723 -4.19224,-3.20724 h -68.95555 c -73.056404,0 -93.936574,0.93773 -108.790654,4.88577 -5.94294,1.57956 -11.3313,2.0623 -22.98518,2.05925 -13.9517,-0.004 -15.53478,-0.20447 -18.96419995,-2.40543 z"
       id="path5401"
       />
  </g>
</svg>
