<svg
   xmlns:svg="http://www.w3.org/2000/svg"
   xmlns="http://www.w3.org/2000/svg"
   width="308.8372497558594"
   height="36.6229248046875"
   viewBox="-37.18121337890625 132.2523193359375 308.8372497558594 36.6229248046875"
   version="1.1"
   id="svg7967"
   >
  <path
     style="display:inline;opacity:1;fill:#ffffff;stroke-width:1.06907809"
     d="m 192.6324,168.06643 c -1.764,-0.44885 -54.19367,-0.87302 -116.510423,-0.94259 l -113.30319,-0.12648 4.20417,-2.85681 c 8.48807,-5.76779 13.73183,-7.04176 32.10628995,-7.80021 15.56936005,-0.64265 17.58522005,-0.95514 22.45064005,-3.4802 2.93997,-1.52579 7.51028,-3.34908 10.15625,-4.05176 6.09255,-1.61797 18.18445,-7.74006 25.12333,-12.71986 l 5.34539,-3.8362 14.96709,0.0251 c 14.23279,0.0239 15.61803,0.22357 28.234823,4.07027 7.29723,2.22485 14.75405,4.82138 16.57072,5.77009 2.84922,1.48794 18.98308,5.4441 30.42721,7.46101 2.18718,0.38547 4.91961,2.06878 6.94902,4.2809 1.83946,2.00511 4.63045,5.05972 6.2022,6.78803 l 2.85774,3.14239 15.3166,1.8e-4 c 9.07775,1.1e-4 18.68125,0.64402 23.57694,1.58084 5.80483,1.11078 15.81547,1.59094 33.67596,1.61528 13.97859,0.019 27.58051,0.45017 30.22647,0.95805 3.06388,0.58809 -9.74727,0.92607 -35.27957,0.93074 -22.04974,0.004 -41.53368,-0.35992 -43.29766,-0.80878 z"
     id="path5403"
     />
</svg>
