<svg
   width="210mm"
   height="297mm"
   viewBox="0 0 210 297"
   id="svg4009"
  >
    <path
       style="fill:#ffffff;"
       d="m -454.27548,259.34025 c 23.04348,-9.7046 63.57955,-28.83101 79.88646,-37.69336 l 13.09568,-7.11714 29.48214,-0.98885 c 16.21518,-0.54388 37.22131,-1.69214 46.68029,-2.55172 18.11234,-1.64592 21.39436,-2.98171 47.0578,-19.15245 10.66435,-6.71968 28.8408,-25.24663 33.22878,-33.86952 4.32726,-8.50359 23.18819,-27.02295 37.94823,-37.26102 l 6.41583,-4.45024 32.64109,-0.86592 c 30.568949,-0.81094 33.216959,-1.11057 41.712519,-4.71984 4.98927,-2.11966 12.81337,-4.71388 17.38688,-5.76494 16.16376,-3.71466 22.42354,-8.599039 32.33393,-25.229616 3.22982,-5.419982 16.11858,-20.383405 30.5917605,-35.516024 C 20.519919,16.625687 45.549499,-3.4604974 57.745889,-6.8471404 c 6.42642,-1.7844584 39.5949,-1.9723972 59.307151,-0.3360446 12.27423,1.0189131 12.83777,1.2354322 17.623,6.77112683 2.7188,3.14520757 5.40231,7.55004157 5.96334,9.78851957 0.56102,2.2384776 2.42384,7.3349086 4.13961,11.3253996 5.16467,12.011914 6.67073,12.399325 48.20254,12.399325 h 35.69155 l 13.17818,6.67222 c 17.67456,8.948774 27.4116,17.89676 33.04749,30.369446 5.17983,11.463393 21.69903,28.505029 34.256,35.339378 10.41289,5.66742 38.65152,12.59771 59.41499,14.58156 19.45788,1.85912 16.63724,-0.0762 36.67263,25.16278 14.54391,18.32129 21.58812,25.03947 32.76221,31.24576 11.62347,6.45588 22.41259,8.57528 43.65379,8.57528 h 16.14043 l 6.63845,5.81368 c 8.96311,7.84951 10.902,8.73246 27.09806,12.34005 8.9686,1.99774 17.6128,5.14554 23.9941,8.73748 l 9.9749,5.61475 34.0178,0.51369 c 26.7406,0.40378 34.5334,0.97428 36.4279,2.66674 3.6798,3.28747 19.7233,11.18266 22.7239,11.18266 7.3424,0 2.7318,3.08885 -10.4254,6.98442 l -14.7085,4.35486 -77.4196,0.45392 c -51.08544,0.2995 -79.43898,-0.0898 -83.35659,-1.1448 -3.74091,-1.00732 -9.90645,-5.1579 -16.6675,-11.22043 -6.37704,-5.71814 -12.65899,-10.00744 -15.48413,-10.57246 -2.61456,-0.52292 -12.66447,-0.95075 -22.33317,-0.95075 -13.7319,0 -20.88766,0.82907 -32.69493,3.78815 -8.31355,2.08346 -20.89856,4.43899 -27.96672,5.23451 -27.59721,3.10603 -34.08746,5.00267 -44.95538,13.13725 -2.68944,2.01303 -9.49301,5.50458 -15.11904,7.75902 l -10.22916,4.09892 -44.60118,-0.0435 c -43.56859,-0.0425 -44.93371,-0.13621 -58.96427,-4.05231 -30.72895,-8.57668 -39.76442,-9.10973 -139.605761,-8.23634 -50.0278395,0.43764 -95.04188,1.46301 -100.03115,2.27859 -5.0351,0.82309 -44.585809,1.53966 -88.888149,1.61049 -89.14419,0.14243 -88.55281,0.0891 -122.02257,11.02146 -24.85073,8.11712 -35.67503,8.92124 -130.02382,9.6594 l -74.83928,0.58556 z"
       id="path5315"
       />
</svg>
